# File produced by Open Asset Import Library (http://www.assimp.sf.net)
# (assimp v5.0.3029775719)

mtllib GoltHead.mtl

# 192 vertex positions
v  0.099999964 1.3 -0.50000006
v  0.099999964 1.2 -0.40000007
v  0.099999964 1.2 -0.50000006
v  0.099999964 1.3 -0.40000007
v  0.10000002 1.1 0.19999999
v  0.10000004 0.80000001 0.29999998
v  0.10000002 0.80000001 0.19999999
v  0.10000004 1.1 0.29999998
v  0.099999964 0.39999998 -0.5
v  0.099999964 0.19999999 -0.40000001
v  0.099999964 0.19999999 -0.5
v  0.099999964 0.40000001 -0.40000001
v  0.099999979 0.10000002 -0.30000001
v  0.099999964 0.10000002 -0.40000001
v  0.099999979 0.19999999 -0.30000001
v  0.20000003 1.4000001 0.19999993
v  0.20000003 1.3 0.29999992
v  0.20000003 1.3 0.19999993
v  0.20000003 1.4000001 0.29999992
v  0.19999997 1.2 -0.50000012
v  0.19999997 0.40000001 -0.40000004
v  0.19999997 0.39999998 -0.50000006
v  0.19999997 1.2 -0.4000001
v  0.19999997 0.30000001 -0.40000004
v  0.19999999 0.19999999 -0.30000001
v  0.19999997 0.19999999 -0.40000004
v  0.19999999 0.30000001 -0.30000004
v  0.29999998 1.4000001 -0.3000001
v  0.30000001 1.3 -0.20000008
v  0.29999998 1.3 -0.30000007
v  0.30000001 1.4000001 -0.20000009
v  0.30000004 1.4000001 0.099999912
v  0.30000004 1.3 0.19999993
v  0.30000004 1.3 0.099999927
v  0.30000004 1.4000001 0.19999993
v  0.29999998 1.3 -0.4000001
v  0.29999998 0.5 -0.30000004
v  0.29999998 0.30000001 -0.40000004
v  0.29999998 0.30000001 -0.30000004
v  -0.19999997 1.1 0.20000002
v  -0.19999997 1 0.30000001
v  -0.19999997 1 0.20000002
v  -0.19999997 1.1 0.30000001
v  0.40000001 1.4000001 -0.20000011
v  0.40000001 1.3 -0.10000009
v  0.40000001 1.3 -0.20000009
v  0.40000001 0.90000004 -0.10000007
v  0.40000004 1.4000001 0.099999912
v  0.39999998 1.3 -0.30000007
v  0.40000001 1.3 -8.9406967e-08
v  0.40000001 0.60000002 -0.20000006
v  0.40000004 1.3 0.099999927
v  0.40000001 0.69999999 -0.10000006
v  0.39999998 0.5 -0.30000004
v  0.40000001 0.90000004 -7.4505806e-08
v  0.40000001 0.60000002 -0.10000006
v  0.40000001 0.5 -0.20000005
v  0.40000004 1.3 0.29999992
v  0.40000004 0.70000005 0.099999942
v  0.40000004 0.60000002 0.19999996
v  0.40000004 0.40000004 0.29999998
v  0.40000004 0.60000002 0.099999957
v  0.40000004 0.40000001 0.19999999
v  -0.29999998 0.70000005 0.20000002
v  -0.29999998 1 0.20000002
v  -0.29999998 1 0.30000001
v  -0.29999998 0.40000004 0.30000004
v  -0.29999998 0.60000002 0.20000002
v  -0.29999998 0.40000001 0.20000005
v  -0.29999998 0.70000005 0.1
v  -0.29999998 0.60000002 0.10000002
v  -0.30000001 0.69999999 -0.19999999
v  -0.30000001 0.60000002 -0.099999994
v  -0.30000001 0.60000002 -0.19999999
v  -0.30000001 0.69999999 -0.1
v  -0.30000004 0.60000002 -0.29999998
v  -0.30000001 0.5 -0.19999999
v  -0.30000004 0.5 -0.29999998
v  -0.40000001 1.5 -0.10000002
v  -0.40000001 1.4000001 -2.2351742e-08
v  -0.40000001 1.4000001 -0.10000002
v  -0.40000001 1.5 -2.2351742e-08
v  0.5 1.3 -0.1000001
v  0.5 0.90000004 -8.1956387e-08
v  0.5 0.90000004 -0.10000008
v  0.5 1.3 -9.6857548e-08
v  0.60000002 0.90000004 -0.10000009
v  0.60000002 0.80000001 -8.1956387e-08
v  0.60000002 0.80000001 -0.10000008
v  0.60000002 0.90000004 -8.9406967e-08
v  -0.5 0.90000004 -0.099999994
v  -0.5 0.80000001 1.4901161e-08
v  -0.5 0.80000001 -0.099999987
v  -0.5 0.90000004 7.4505806e-09
v  3.1243822e-08 1.3 0.29999995
v  2.2501544e-08 1.4000001 0.19999996
v  2.2501544e-08 1.3 0.19999996
v  3.1243822e-08 1.4000001 0.29999995
v  3.1243822e-08 0.80000001 0.29999998
v  2.2501544e-08 0.90000004 0.19999999
v  2.2501544e-08 0.80000001 0.19999999
v  3.1243822e-08 0.90000004 0.29999998
v  -0.10000001 1.3 -0.20000005
v  -0.10000002 1.4000001 -0.30000004
v  -0.10000002 1.3 -0.30000004
v  -0.10000001 1.4000001 -0.20000005
v  -0.099999979 1.3 0.19999996
v  -0.099999994 1.4000001 0.099999957
v  -0.099999994 1.3 0.099999972
v  -0.099999979 1.4000001 0.19999996
v  -0.10000004 1.2 -0.40000007
v  -0.10000004 1.3 -0.50000006
v  -0.10000004 1.2 -0.50000006
v  -0.10000004 1.3 -0.40000007
v  -0.099999964 0.90000004 0.29999998
v  -0.099999979 1.1 0.19999999
v  -0.099999979 0.90000004 0.19999999
v  -0.099999964 1.1 0.29999998
v  -0.10000004 0.19999999 -0.40000001
v  -0.10000004 0.39999998 -0.5
v  -0.10000004 0.19999999 -0.5
v  -0.10000004 0.40000001 -0.40000001
v  -0.10000002 0.10000002 -0.29999998
v  -0.10000004 0.10000002 -0.40000001
v  -0.10000002 0.19999999 -0.29999998
v  -0.2 1.3 -0.10000004
v  -0.20000002 1.4000001 -0.20000005
v  -0.20000002 1.3 -0.20000005
v  -0.2 1.4000001 -0.10000004
v  -0.19999999 1.3 0.099999972
v  -0.19999999 1.4000001 -4.4703484e-08
v  -0.19999999 1.3 -3.7252903e-08
v  -0.19999999 1.4000001 0.099999957
v  -0.20000003 0.40000001 -0.39999998
v  -0.20000003 1.2 -0.50000006
v  -0.20000003 0.39999998 -0.49999997
v  -0.20000003 1.2 -0.40000004
v  -0.20000002 0.19999999 -0.29999998
v  -0.20000003 0.30000001 -0.39999998
v  -0.20000003 0.19999999 -0.39999998
v  -0.20000002 0.30000001 -0.30000001
v  0.20000003 0.90000004 0.29999995
v  0.20000003 1.1 0.19999996
v  0.20000003 0.90000004 0.19999996
v  0.20000003 1.1 0.29999995
v  0.2 0.60000002 -0.10000004
v  0.19999999 0.69999999 -0.20000005
v  0.19999999 0.60000002 -0.20000005
v  0.2 0.69999999 -0.10000005
v  -0.30000004 1.3 -0.40000004
v  -0.30000004 0.30000001 -0.39999998
v  -0.30000004 0.30000001 -0.29999998
v  -0.30000004 1.3 -0.30000001
v  -0.40000001 1.3 -1.4901161e-08
v  -0.40000001 1.3 -0.10000002
v  -0.40000001 0.60000002 -0.19999999
v  -0.40000004 1.3 -0.30000001
v  -0.40000004 0.5 -0.29999998
v  -0.40000001 0.5 -0.19999999
v  -0.40000001 0.90000004 -0.1
v  -0.40000001 0.69999999 -0.099999994
v  -0.40000001 0.60000002 -0.099999987
v  -0.40000001 0.90000004 0
v  -0.39999998 0.70000005 0.1
v  -0.39999998 1.3 0.29999998
v  -0.39999998 0.60000002 0.20000002
v  -0.39999998 0.40000004 0.30000004
v  -0.39999998 0.60000002 0.10000002
v  -0.39999998 0.40000001 0.20000005
v  0.30000004 0.90000004 0.19999996
v  0.30000004 0.70000005 0.19999996
v  0.30000004 0.90000004 0.29999995
v  0.30000004 0.40000004 0.29999998
v  0.30000004 0.60000002 0.19999996
v  0.30000004 0.40000001 0.19999999
v  0.30000004 0.70000005 0.099999942
v  0.30000004 0.60000002 0.099999957
v  0.30000001 0.5 -0.20000005
v  0.29999998 0.60000002 -0.30000004
v  0.30000001 0.60000002 -0.20000005
v  -0.5 1.4000001 -1.4901161e-08
v  -0.5 1.5 -0.10000002
v  -0.5 1.4000001 -0.10000002
v  -0.5 1.5 -1.4901161e-08
v  -0.5 1.3 -0.10000001
v  -0.5 1.3 -7.4505806e-09
v  0.5 0.80000001 -7.4505806e-08
v  0.5 0.80000001 -0.10000008
v  -0.60000002 0.80000001 2.2351742e-08
v  -0.60000002 0.90000004 -0.099999987
v  -0.60000002 0.80000001 -0.099999979
v  -0.60000002 0.90000004 1.4901161e-08

# 233 UV coordinates
vt 0.35712603 0.384561 0
vt 0.33336699 0.384561 0
vt 0.35712603 0.3078011 0
vt 0.65479749 0.3077434 0
vt 0.69045842 0.38451317 0
vt 0.69045842 0.3077434 0
vt 0.65477967 0.30779451 0
vt 0.65477967 0.38456428 0
vt 0.6904406 0.38456428 0
vt 0.73807842 0.53851593 0
vt 0.71431941 0.53851593 0
vt 0.73807842 0.61527586 0
vt 0.90139151 0.15390456 0
vt 0.92855591 0.23065242 0
vt 0.92855591 0.15390456 0
vt 0.90137607 0.15396297 0
vt 0.90137607 0.23071082 0
vt 0.92854047 0.23071082 0
vt 0.50004286 0.84618461 0
vt 0.69046193 0.92301536 0
vt 0.73806667 0.84618461 0
vt 0.50002199 0.84621304 0
vt 0.50002199 0.92304736 0
vt 0.69043225 0.92304736 0
vt 0.71426886 0.30774671 0
vt 0.69050986 0.30774671 0
vt 0.71426886 0.38450661 0
vt 0.88092595 0.3077563 0
vt 0.85715604 0.3077563 0
vt 0.85715604 0.46141046 0
vt 0.88092858 0.30776924 0
vt 0.86904764 0.30776924 0
vt 0.85716665 0.46138462 0
vt 0.88091397 0.6922316 0
vt 0.78571779 0.53853762 0
vt 0.7143206 0.61538464 0
vt 0.69049847 0.42321196 0
vt 0.69049847 0.499973 0
vt 0.71424115 0.5383535 0
vt 0.85710305 0.92304832 0
vt 0.69049209 0.84621102 0
vt 0.66669059 0.92304832 0
vt 0.42858464 0.46141046 0
vt 0.42858464 0.3077563 0
vt 0.45235455 0.3077563 0
vt 0.7142725 0.53833354 0
vt 0.7142725 0.38467938 0
vt 0.69050258 0.38467938 0
vt 0.45235512 0.30776739 0
vt 0.42859209 0.46138829 0
vt 0.4365131 0.30776739 0
vt 0.30953702 0.92301291 0
vt 0.35711643 0.84615386 0
vt 0.30953702 0.7692948 0
vt 0.47622597 0.30760053 0
vt 0.61901921 0.1538645 0
vt 0.57142144 0.076996498 0
vt 0.71430951 0.23076923 0
vt 0.73811013 0.30762741 0
vt 0.88091367 0.15391105 0
vt 0.66665328 0.30775586 0
vt 0.50004292 0.38458359 0
vt 0.71425623 0.38458359 0
vt 0.71425015 0.076974183 0
vt 0.67858922 0.076974183 0
vt 0.67858922 0.15374394 0
vt 0.70240772 0.30773076 0
vt 0.73809522 0.38453847 0
vt 0.77378273 0.30773076 0
vt 0.42858827 0.3078011 0
vt 0.45234728 0.41020203 0
vt 0.42858827 0.41020203 0
vt 0.42860511 0.30774671 0
vt 0.45236412 0.30774671 0
vt 0.45236412 0.41014764 0
vt 0.78573114 0.384561 0
vt 0.80949014 0.384561 0
vt 0.78573114 0.3078011 0
vt 0.64282346 0.384561 0
vt 0.61906445 0.384561 0
vt 0.61906445 0.3078011 0
vt 0.95240736 0.84608984 0
vt 0.97617728 0.69243568 0
vt 0.97617728 0.84608984 0
vt 0.95239419 0.69237167 0
vt 0.97616404 0.69237167 0
vt 0.95239419 0.84602582 0
vt 0.69046193 0.69224614 0
vt 0.50004286 0.61541539 0
vt 0.73806667 0.61541539 0
vt 0.50002199 0.69227809 0
vt 0.50002199 0.61544377 0
vt 0.69043225 0.69227809 0
vt 0.39283586 0.61535019 0
vt 0.38094705 0.76909316 0
vt 0.35716948 0.30786431 0
vt 0.45236087 0.23089424 0
vt 0.404782 0.69225961 0
vt 0.42857143 0.76915383 0
vt 0.28572479 0.38473162 0
vt 0.30950281 0.65380985 0
vt 0.28572479 0.73068929 0
vt 0.65873313 0.30776864 0
vt 0.68251604 0.38457721 0
vt 0.64287782 0.38457721 0
vt 0.65479535 0.30776432 0
vt 0.66667503 0.30776432 0
vt 0.6904344 0.38447133 0
vt 0.7142725 0.38474339 0
vt 0.69050258 0.53839755 0
vt 0.7142725 0.53839755 0
vt 0.21430309 0.48071662 0
vt 0.21430309 0.38472059 0
vt 0.2380605 0.48071662 0
vt 0.69048941 0.38467938 0
vt 0.69048941 0.53833354 0
vt 0.71425933 0.38467938 0
vt 0.21431856 0.61541647 0
vt 0.23807882 0.59620953 0
vt 0.23807882 0.71145093 0
vt 0.23807786 0.48071662 0
vt 0.21432045 0.48071662 0
vt 0.23807786 0.38472059 0
vt 0.11902828 0.46160877 0
vt 0.095247768 0.92293632 0
vt 0.095247768 0.46160877 0
vt 0.26190478 0.76931614 0
vt 0.23811504 0.92303425 0
vt 0.28569448 0.92303425 0
vt 0.2380605 0.38466799 0
vt 0.21430309 0.48066401 0
vt 0.21430309 0.38466799 0
vt 0.11903795 0.92300665 0
vt 0.095257439 0.92300665 0
vt 0.11903795 0.46167904 0
vt 0.88092262 0.38459137 0
vt 0.85715771 0.30777639 0
vt 0.85715771 0.41019633 0
vt 0.88093919 0.46141046 0
vt 0.85716927 0.3077563 0
vt 0.88093919 0.3077563 0
vt 0.88092595 0.46147445 0
vt 0.85715604 0.46147445 0
vt 0.85715604 0.30782032 0
vt 0.66668862 0.84621304 0
vt 0.85709888 0.92304736 0
vt 0.66668862 0.92304736 0
vt 0.66671062 0.84618342 0
vt 0.85712087 0.84618342 0
vt 0.85712087 0.92301774 0
vt 0.7380721 0.69228047 0
vt 0.50003999 0.69228047 0
vt 0.71426886 0.615439 0
vt 0.50003016 0.6922363 0
vt 0.52383059 0.61542028 0
vt 0.71423447 0.61542028 0
vt 0.7380721 0.84618104 0
vt 0.71426886 0.92302251 0
vt 0.50003999 0.84618104 0
vt 0.71423447 0.92304122 0
vt 0.52383059 0.92304122 0
vt 0.50003016 0.8462252 0
vt 0.11902381 0.69230771 0
vt 0.095250003 0.92294711 0
vt 0.095250003 0.46166828 0
vt 0.1190272 0.61534506 0
vt 0.1190272 0.6921494 0
vt 0.095278926 0.46173635 0
vt 0.21427958 0.2306949 0
vt 0.16669734 0.076997399 0
vt 0.2380707 0.15384616 0
vt 0.14285715 0.30776924 0
vt 0.16664286 0.38461539 0
vt 0.11907143 0.46146154 0
vt 0.23806156 0.92302251 0
vt 0.21430255 0.92302251 0
vt 0.21430255 0.84626263 0
vt 0.095238097 0.23084851 0
vt 0.11902461 0.46143937 0
vt 0.071451575 0.30771214 0
vt 0.047605839 0.92301291 0
vt 0.023835938 0.92301291 0
vt 0.047605839 0.76935875 0
vt 0.047596242 0.46156058 0
vt 0.023820927 0.61527407 0
vt 0.023820927 0.38470379 0
vt 0.023821428 0.077009618 0
vt 0.047595236 0.15384616 0
vt 0.023821428 0.23068269 0
vt 0.023825342 0.92301941 0
vt 0.023825342 0.80780727 0
vt 0.04758741 0.92301941 0
vt 0.02382273 0.07698708 0
vt 0.047592632 0.07698708 0
vt 0.02382273 0.23064122 0
vt 0.70240074 0.30777764 0
vt 0.70240074 0.38457271 0
vt 0.77376992 0.38457271 0
vt 0.28572562 0.38470954 0
vt 0.28572562 0.73065156 0
vt 0.30950114 0.50002354 0
vt 0.33329761 0.23067307 0
vt 0.30952382 0.11546154 0
vt 0.28575 0.15386538 0
vt 0.88096428 0.76915383 0
vt 0.92854762 0.61538464 0
vt 0.88096428 0.46161538 0
vt 0.69042259 0.30776924 0
vt 0.66666669 0.30776924 0
vt 0.64291072 0.38446155 0
vt 0.97617066 0.38465807 0
vt 0.95238096 0.53837621 0
vt 0.92859125 0.38465807 0
vt 0.38095239 0.92299157 0
vt 0.35716265 0.76927346 0
vt 0.40474209 0.76927346 0
vt 0.64289677 0.30773497 0
vt 0.69045639 0.38453004 0
vt 0.69045639 0.30773497 0
vt 0.67856646 0.38453004 0
vt 0.65478665 0.30773497 0
vt 0.35714287 0.077025644 0
vt 0.33335716 0.38451281 0
vt 0.38092858 0.23076923 0
vt 0.95239419 0.84608984 0
vt 0.97616404 0.84608984 0
vt 0.95239419 0.69243568 0
vt 0.59524131 0.38453916 0
vt 0.71424067 0.30773041 0
vt 0.50004184 0.30773041 0
vt 0.6825211 0.38456732 0
vt 0.6825211 0.3077884 0
vt 0.64289433 0.38456732 0

# 6 vertex normals
vn 0.050000001 -1.9106854e-16 -4.371139e-09
vn -0.050000001 1.9106854e-16 4.371139e-09
vn 0 -0.050000001 2.1855695e-09
vn 0 0.050000001 -2.1855695e-09
vn -4.371139e-09 -2.1855695e-09 -0.050000001
vn 4.371139e-09 2.1855695e-09 0.050000001

# Mesh 'Plane-tex' with 380 faces
g Plane-tex
usemtl lambert0
f  1/1/1 2/2/1 3/3/1
f  1/1/1 4/2/1 2/3/1
f  5/4/1 6/5/1 7/6/1
f  5/7/1 8/8/1 6/9/1
f  9/10/1 10/11/1 11/12/1
f  9/10/1 12/11/1 10/12/1
f  10/10/1 13/11/1 14/12/1
f  10/10/1 15/11/1 13/12/1
f  16/1/1 17/2/1 18/3/1
f  16/1/1 19/2/1 17/3/1
f  20/13/1 21/14/1 22/15/1
f  20/16/1 23/17/1 21/18/1
f  24/10/1 25/11/1 26/12/1
f  24/10/1 27/11/1 25/12/1
f  28/1/1 29/2/1 30/3/1
f  28/1/1 31/2/1 29/3/1
f  32/1/1 33/2/1 34/3/1
f  32/1/1 35/2/1 33/3/1
f  36/19/1 37/20/1 38/21/1
f  37/10/1 39/11/1 38/12/1
f  36/22/1 30/23/1 37/24/1
f  40/25/1 41/26/1 42/27/1
f  40/25/1 43/26/1 41/27/1
f  44/1/1 45/2/1 46/3/1
f  46/28/1 45/29/1 47/30/1
f  44/1/1 48/2/1 45/3/1
f  49/31/1 46/32/1 47/33/1
f  48/1/1 50/2/1 45/3/1
f  49/34/1 47/35/1 51/36/1
f  48/1/1 52/2/1 50/3/1
f  47/37/1 53/38/1 51/39/1
f  49/40/1 51/41/1 54/42/1
f  55/43/1 50/44/1 52/45/1
f  53/10/1 56/11/1 51/12/1
f  53/46/1 47/47/1 55/48/1
f  51/10/1 57/11/1 54/12/1
f  58/49/1 55/50/1 52/51/1
f  53/52/1 55/53/1 59/54/1
f  58/55/1 59/56/1 55/57/1
f  60/58/1 59/59/1 58/60/1
f  60/61/1 58/62/1 61/63/1
f  59/25/1 60/26/1 62/27/1
f  60/25/1 61/26/1 63/27/1
f  64/64/1 65/65/1 66/66/1
f  67/67/1 64/68/1 66/69/1
f  68/25/1 64/26/1 67/27/1
f  68/25/1 67/26/1 69/27/1
f  70/25/1 64/26/1 68/27/1
f  70/25/1 68/26/1 71/27/1
f  72/10/1 73/11/1 74/12/1
f  72/10/1 75/11/1 73/12/1
f  76/10/1 77/11/1 78/12/1
f  76/10/1 74/11/1 77/12/1
f  79/1/1 80/2/1 81/3/1
f  79/1/1 82/2/1 80/3/1
f  83/70/1 84/71/1 85/72/1
f  83/73/1 86/74/1 84/75/1
f  87/76/1 88/77/1 89/78/1
f  87/76/1 90/77/1 88/78/1
f  91/76/1 92/77/1 93/78/1
f  91/76/1 94/77/1 92/78/1
f  95/79/2 96/80/2 97/81/2
f  98/79/2 96/80/2 95/81/2
f  99/26/2 100/25/2 101/27/2
f  102/26/2 100/25/2 99/27/2
f  103/2/2 104/1/2 105/3/2
f  106/2/2 104/1/2 103/3/2
f  107/2/2 108/1/2 109/3/2
f  110/2/2 108/1/2 107/3/2
f  111/2/2 112/1/2 113/3/2
f  114/2/2 112/1/2 111/3/2
f  115/26/2 116/25/2 117/27/2
f  118/26/2 116/25/2 115/27/2
f  119/11/2 120/10/2 121/12/2
f  122/11/2 120/10/2 119/12/2
f  123/11/2 119/10/2 124/12/2
f  125/11/2 119/10/2 123/12/2
f  126/2/2 127/1/2 128/3/2
f  129/2/2 127/1/2 126/3/2
f  130/2/2 131/1/2 132/3/2
f  133/2/2 131/1/2 130/3/2
f  134/14/2 135/13/2 136/15/2
f  137/17/2 135/16/2 134/18/2
f  138/11/2 139/10/2 140/12/2
f  141/11/2 139/10/2 138/12/2
f  142/82/2 143/83/2 144/84/2
f  145/85/2 143/86/2 142/87/2
f  146/11/2 147/10/2 148/12/2
f  149/11/2 147/10/2 146/12/2
f  78/88/2 150/89/2 151/90/2
f  152/11/2 78/10/2 151/12/2
f  153/91/2 150/92/2 78/93/2
f  154/2/2 81/1/2 155/3/2
f  80/2/2 81/1/2 154/3/2
f  156/41/2 157/40/2 158/42/2
f  159/11/2 156/10/2 158/12/2
f  160/35/2 157/34/2 156/36/2
f  161/38/2 160/37/2 156/39/2
f  155/29/2 157/28/2 160/30/2
f  162/11/2 161/10/2 156/12/2
f  160/47/2 161/46/2 163/48/2
f  163/53/2 161/52/2 164/54/2
f  163/94/2 164/95/2 165/96/2
f  154/44/2 163/43/2 165/45/2
f  165/97/2 164/98/2 166/99/2
f  165/100/2 166/101/2 167/102/2
f  166/26/2 164/25/2 168/27/2
f  167/26/2 166/25/2 169/27/2
f  170/79/2 171/80/2 172/81/2
f  171/103/2 173/104/2 172/105/2
f  171/106/2 174/107/2 173/108/2
f  173/26/2 174/25/2 175/27/2
f  171/26/2 176/25/2 174/27/2
f  174/26/2 176/25/2 177/27/2
f  178/11/2 179/10/2 37/12/2
f  180/11/2 179/10/2 178/12/2
f  181/2/2 182/1/2 183/3/2
f  184/2/2 182/1/2 181/3/2
f  94/71/2 185/70/2 91/72/2
f  186/74/2 185/73/2 94/75/2
f  187/77/2 85/76/2 188/78/2
f  84/77/2 85/76/2 187/78/2
f  189/77/2 190/76/2 191/78/2
f  192/77/2 190/76/2 189/78/2
f  13/11/3 124/10/3 14/12/3
f  123/11/3 124/10/3 13/12/3
f  125/11/3 140/10/3 119/12/3
f  138/11/3 140/10/3 125/12/3
f  10/11/3 121/10/3 11/12/3
f  119/11/3 121/10/3 10/12/3
f  25/11/3 10/10/3 26/12/3
f  15/11/3 10/10/3 25/12/3
f  141/11/3 151/10/3 139/12/3
f  152/11/3 151/10/3 141/12/3
f  39/11/3 24/10/3 38/12/3
f  27/11/3 24/10/3 39/12/3
f  67/26/3 169/25/3 69/27/3
f  167/26/3 169/25/3 67/27/3
f  122/11/3 136/10/3 120/12/3
f  134/11/3 136/10/3 122/12/3
f  21/11/3 9/10/3 22/12/3
f  12/11/3 9/10/3 21/12/3
f  61/26/3 175/25/3 63/27/3
f  173/26/3 175/25/3 61/27/3
f  77/11/3 158/10/3 78/12/3
f  159/11/3 158/10/3 77/12/3
f  57/11/3 37/10/3 54/12/3
f  178/11/3 37/10/3 57/12/3
f  73/11/3 156/10/3 74/12/3
f  162/11/3 156/10/3 73/12/3
f  68/26/3 168/25/3 71/27/3
f  166/26/3 168/25/3 68/27/3
f  148/11/3 76/10/3 179/12/3
f  180/11/3 148/10/3 179/12/3
f  74/11/3 76/10/3 148/12/3
f  148/11/3 180/10/3 146/12/3
f  180/11/3 56/10/3 146/12/3
f  56/11/3 180/10/3 51/12/3
f  60/26/3 177/25/3 62/27/3
f  174/26/3 177/25/3 60/27/3
f  70/109/3 161/110/3 75/111/3
f  75/112/3 149/113/3 70/114/3
f  164/115/3 161/116/3 70/117/3
f  149/118/3 176/119/3 70/120/3
f  75/121/3 72/122/3 149/123/3
f  171/124/3 70/125/3 176/126/3
f  176/127/3 149/128/3 53/129/3
f  149/130/3 72/131/3 147/132/3
f  64/133/3 70/134/3 171/135/3
f  59/47/3 176/48/3 53/46/3
f  92/77/3 191/76/3 93/78/3
f  189/77/3 191/76/3 92/78/3
f  6/26/3 101/25/3 7/27/3
f  99/26/3 101/25/3 6/27/3
f  88/77/3 188/76/3 89/78/3
f  187/77/3 188/76/3 88/78/3
f  163/77/3 91/76/3 160/78/3
f  94/77/3 91/76/3 163/78/3
f  102/26/3 117/25/3 100/27/3
f  115/26/3 117/25/3 102/27/3
f  172/26/3 144/25/3 170/27/3
f  142/26/3 144/25/3 172/27/3
f  84/77/3 47/76/3 85/78/3
f  55/77/3 47/76/3 84/78/3
f  41/26/3 65/25/3 42/27/3
f  66/26/3 65/25/3 41/27/3
f  118/26/3 40/25/3 116/27/3
f  43/26/3 40/25/3 118/27/3
f  145/26/3 5/25/3 143/27/3
f  8/26/3 5/25/3 145/27/3
f  80/2/3 183/1/3 81/3/3
f  181/2/3 183/1/3 80/3/3
f  190/76/4 94/77/4 91/78/4
f  190/76/4 192/77/4 94/78/4
f  85/76/4 90/77/4 87/78/4
f  85/76/4 84/77/4 90/78/4
f  135/1/4 111/2/4 113/3/4
f  135/1/4 137/2/4 111/3/4
f  3/1/4 23/2/4 20/3/4
f  3/1/4 2/2/4 23/3/4
f  185/1/4 154/2/4 155/3/4
f  185/1/4 186/2/4 154/3/4
f  154/1/4 130/2/4 132/3/4
f  154/1/4 165/2/4 130/3/4
f  130/1/4 165/2/4 107/3/4
f  107/136/4 165/137/4 95/138/4
f  130/1/4 107/2/4 109/3/4
f  107/80/4 95/79/4 97/81/4
f  153/1/4 157/2/4 155/3/4
f  128/1/4 153/2/4 155/3/4
f  155/1/4 126/2/4 128/3/4
f  153/1/4 128/2/4 105/3/4
f  128/1/4 103/2/4 105/3/4
f  150/1/4 153/2/4 105/3/4
f  150/1/4 105/2/4 114/3/4
f  4/1/4 114/2/4 105/3/4
f  30/1/4 4/2/4 105/3/4
f  112/1/4 114/2/4 4/3/4
f  4/1/4 30/2/4 36/3/4
f  112/1/4 4/2/4 1/3/4
f  33/1/4 18/2/4 17/3/4
f  58/1/4 33/2/4 17/3/4
f  52/1/4 33/2/4 58/3/4
f  52/1/4 34/2/4 33/3/4
f  30/1/4 46/2/4 49/3/4
f  30/1/4 29/2/4 46/3/4
f  45/1/4 86/2/4 83/3/4
f  45/1/4 50/2/4 86/3/4
f  81/1/4 131/2/4 129/3/4
f  129/1/4 131/2/4 108/3/4
f  81/1/4 80/2/4 131/3/4
f  131/1/4 133/2/4 108/3/4
f  106/1/4 129/2/4 108/3/4
f  32/1/4 106/2/4 108/3/4
f  106/1/4 127/2/4 129/3/4
f  32/1/4 108/2/4 96/3/4
f  106/1/4 32/2/4 31/3/4
f  108/1/4 110/2/4 96/3/4
f  96/1/4 16/2/4 32/3/4
f  31/1/4 32/2/4 48/3/4
f  104/1/4 106/2/4 31/3/4
f  16/1/4 35/2/4 32/3/4
f  96/139/4 19/140/4 16/141/4
f  31/1/4 48/2/4 44/3/4
f  104/1/4 31/2/4 28/3/4
f  96/142/4 98/143/4 19/144/4
f  182/1/4 82/2/4 79/3/4
f  182/1/4 184/2/4 82/3/4
f  191/76/5 91/77/5 93/78/5
f  191/76/5 190/77/5 91/78/5
f  183/1/5 79/2/5 81/3/5
f  183/1/5 182/2/5 79/3/5
f  91/71/5 155/70/5 160/72/5
f  91/75/5 185/74/5 155/73/5
f  155/1/5 129/2/5 126/3/5
f  155/1/5 81/2/5 129/3/5
f  47/71/5 83/70/5 85/72/5
f  47/75/5 45/74/5 83/73/5
f  188/76/5 87/77/5 89/78/5
f  188/76/5 85/77/5 87/78/5
f  168/25/5 70/26/5 71/27/5
f  168/25/5 164/26/5 70/27/5
f  177/25/5 59/26/5 62/27/5
f  177/25/5 176/26/5 59/27/5
f  128/1/5 106/2/5 103/3/5
f  128/1/5 127/2/5 106/3/5
f  29/1/5 44/2/5 46/3/5
f  29/1/5 31/2/5 44/3/5
f  158/145/5 153/146/5 78/147/5
f  158/148/5 157/149/5 153/150/5
f  105/1/5 28/2/5 30/3/5
f  105/1/5 104/2/5 28/3/5
f  37/145/5 49/146/5 54/147/5
f  37/148/5 30/149/5 49/150/5
f  169/25/5 68/26/5 69/27/5
f  169/25/5 166/26/5 68/27/5
f  175/25/5 60/26/5 63/27/5
f  175/25/5 174/26/5 60/27/5
f  151/10/5 134/11/5 139/12/5
f  139/10/5 134/11/5 122/12/5
f  151/151/5 150/152/5 134/153/5
f  119/10/5 139/11/5 122/12/5
f  150/154/5 137/155/5 134/156/5
f  119/10/5 140/11/5 139/12/5
f  137/1/5 150/2/5 114/3/5
f  137/1/5 114/2/5 111/3/5
f  124/10/5 10/11/5 14/12/5
f  124/10/5 119/11/5 10/12/5
f  10/10/5 24/11/5 26/12/5
f  10/10/5 12/11/5 24/12/5
f  12/10/5 21/11/5 24/12/5
f  38/10/5 24/11/5 21/12/5
f  38/157/5 21/158/5 36/159/5
f  21/160/5 23/161/5 36/162/5
f  36/1/5 23/2/5 4/3/5
f  23/1/5 2/2/5 4/3/5
f  136/14/5 113/13/5 120/15/5
f  120/10/5 113/11/5 3/12/5
f  136/18/5 135/17/5 113/16/5
f  113/1/5 1/2/5 3/3/5
f  120/10/5 3/11/5 9/12/5
f  113/1/5 112/2/5 1/3/5
f  9/18/5 3/17/5 20/16/5
f  121/10/5 120/11/5 9/12/5
f  9/14/5 20/13/5 22/15/5
f  121/10/5 9/11/5 11/12/5
f  94/77/6 189/76/6 92/78/6
f  192/77/6 189/76/6 94/78/6
f  82/2/6 181/1/6 80/3/6
f  184/2/6 181/1/6 82/3/6
f  154/70/6 94/71/6 163/72/6
f  186/74/6 94/75/6 154/73/6
f  131/2/6 154/1/6 132/3/6
f  80/2/6 154/1/6 131/3/6
f  86/70/6 55/71/6 84/72/6
f  50/74/6 55/75/6 86/73/6
f  90/77/6 187/76/6 88/78/6
f  84/77/6 187/76/6 90/78/6
f  108/2/6 130/1/6 109/3/6
f  133/2/6 130/1/6 108/3/6
f  48/2/6 34/1/6 52/3/6
f  32/2/6 34/1/6 48/3/6
f  75/11/6 162/10/6 73/12/6
f  161/11/6 162/10/6 75/12/6
f  53/11/6 146/10/6 56/12/6
f  149/11/6 146/10/6 53/12/6
f  101/163/6 64/164/6 171/165/6
f  7/166/6 101/167/6 171/168/6
f  117/169/6 64/170/6 101/171/6
f  144/172/6 7/173/6 171/174/6
f  100/175/6 117/176/6 101/177/6
f  42/178/6 64/179/6 117/180/6
f  170/181/6 144/182/6 171/183/6
f  144/184/6 5/185/6 7/186/6
f  116/187/6 42/188/6 117/189/6
f  65/190/6 64/191/6 42/192/6
f  143/193/6 5/194/6 144/195/6
f  40/175/6 42/176/6 116/177/6
f  96/2/6 107/1/6 97/3/6
f  110/2/6 107/1/6 96/3/6
f  35/2/6 18/1/6 33/3/6
f  16/2/6 18/1/6 35/3/6
f  167/196/6 67/197/6 66/198/6
f  165/199/6 167/200/6 66/201/6
f  165/202/6 66/203/6 43/204/6
f  165/205/6 43/206/6 95/207/6
f  43/26/6 66/25/6 41/27/6
f  43/208/6 118/209/6 95/210/6
f  95/79/6 118/80/6 8/81/6
f  95/211/6 8/212/6 17/213/6
f  102/214/6 8/215/6 118/216/6
f  19/140/6 95/139/6 17/141/6
f  17/217/6 8/218/6 145/219/6
f  115/26/6 102/25/6 118/27/6
f  102/220/6 6/219/6 8/221/6
f  98/143/6 95/142/6 19/144/6
f  17/2/6 145/1/6 58/3/6
f  99/26/6 6/25/6 102/27/6
f  172/222/6 58/223/6 145/224/6
f  142/225/6 172/226/6 145/227/6
f  172/228/6 61/229/6 58/230/6
f  173/231/6 61/232/6 172/233/6
f  74/11/6 159/10/6 77/12/6
f  156/11/6 159/10/6 74/12/6
f  147/11/6 74/10/6 148/12/6
f  72/11/6 74/10/6 147/12/6
f  51/11/6 178/10/6 57/12/6
f  180/11/6 178/10/6 51/12/6
f  152/11/6 141/10/6 78/12/6
f  141/11/6 37/10/6 78/12/6
f  179/11/6 78/10/6 37/12/6
f  141/11/6 27/10/6 37/12/6
f  76/11/6 78/10/6 179/12/6
f  37/11/6 27/10/6 39/12/6
f  125/11/6 27/10/6 141/12/6
f  138/11/6 125/10/6 141/12/6
f  125/11/6 15/10/6 27/12/6
f  27/11/6 15/10/6 25/12/6
f  125/11/6 123/10/6 15/12/6
f  15/11/6 123/10/6 13/12/6

