# File produced by Open Asset Import Library (http://www.assimp.sf.net)
# (assimp v5.0.3029775719)

mtllib GoltLegR.mtl

# 8 vertex positions
v  -0.10000001 0.30000001 -0.099999994
v  -0.1 0 1.8626451e-08
v  -0.10000001 0 -0.099999979
v  -0.1 0.30000001 3.7252903e-09
v  -0.2 0 2.6077032e-08
v  -0.20000002 0.30000001 -0.099999994
v  -0.20000002 0 -0.099999979
v  -0.2 0.30000001 1.1175871e-08

# 3 UV coordinates
vt 0.33356905 0.66643095 0
vt 0.66619527 0.66643095 0
vt 0.33356905 0.33380473 0

# 6 vertex normals
vn 0.050000001 -1.9106854e-16 -4.371139e-09
vn -0.050000001 1.9106854e-16 4.371139e-09
vn 0 -0.050000001 2.1855695e-09
vn 0 0.050000001 -2.1855695e-09
vn -4.371139e-09 -2.1855695e-09 -0.050000001
vn 4.371139e-09 2.1855695e-09 0.050000001

# Mesh 'Plane-tex' with 12 faces
g Plane-tex
usemtl lambert0
f  1/1/1 2/2/1 3/3/1
f  1/1/1 4/2/1 2/3/1
f  5/2/2 6/1/2 7/3/2
f  8/2/2 6/1/2 5/3/2
f  2/2/3 7/1/3 3/3/3
f  5/2/3 7/1/3 2/3/3
f  6/1/4 4/2/4 1/3/4
f  6/1/4 8/2/4 4/3/4
f  7/1/5 1/2/5 3/3/5
f  7/1/5 6/2/5 1/3/5
f  4/2/6 5/1/6 2/3/6
f  8/2/6 5/1/6 4/3/6

