# File produced by Open Asset Import Library (http://www.assimp.sf.net)
# (assimp v5.0.3029775719)

mtllib LunarkHandR.mtl

# 8 vertex positions
v  -0.2 0.60000002 -0.1
v  -0.19999999 0.2 1.4901161e-08
v  -0.2 0.2 -0.099999987
v  -0.19999999 0.60000002 0
v  -0.30000001 0.2 2.2351742e-08
v  -0.30000001 0.60000002 -0.099999994
v  -0.30000001 0.2 -0.099999979
v  -0.30000001 0.60000002 7.4505806e-09

# 12 UV coordinates
vt 0.35736236 0.33354673 0
vt 0.6427474 0.66623986 0
vt 0.6427474 0.33354673 0
vt 0.3572526 0.33376011 0
vt 0.3572526 0.66645324 0
vt 0.64263767 0.66645324 0
vt 0.85694081 0.66643095 0
vt 0.71438676 0.66643095 0
vt 0.71438676 0.33380473 0
vt 0.14295816 0.66643095 0
vt 0.28551227 0.66643095 0
vt 0.14295816 0.33380473 0

# 6 vertex normals
vn 0.050000001 -1.9106854e-16 -4.371139e-09
vn -0.050000001 1.9106854e-16 4.371139e-09
vn 0 -0.050000001 2.1855695e-09
vn 0 0.050000001 -2.1855695e-09
vn -4.371139e-09 -2.1855695e-09 -0.050000001
vn 4.371139e-09 2.1855695e-09 0.050000001

# Mesh 'Plane-tex' with 12 faces
g Plane-tex
usemtl lambert0
f  1/1/1 2/2/1 3/3/1
f  1/4/1 4/5/1 2/6/1
f  5/2/2 6/1/2 7/3/2
f  8/5/2 6/4/2 5/6/2
f  2/7/3 7/8/3 3/9/3
f  5/7/3 7/8/3 2/9/3
f  6/10/4 4/11/4 1/12/4
f  6/10/4 8/11/4 4/12/4
f  7/2/5 1/1/5 3/3/5
f  7/6/5 6/5/5 1/4/5
f  4/1/6 5/2/6 2/3/6
f  8/5/6 5/6/6 4/4/6

