# File produced by Open Asset Import Library (http://www.assimp.sf.net)
# (assimp v5.0.3029775719)

mtllib LunarkHead.mtl

# 177 vertex positions
v  2.9952126e-08 1.2 0.29999998
v  3.8694402e-08 1.1 0.39999998
v  2.9952126e-08 1.1 0.29999998
v  3.8694402e-08 1.2 0.39999998
v  2.9952126e-08 1 0.29999998
v  3.8694402e-08 0.90000004 0.39999998
v  2.9952126e-08 0.90000004 0.29999998
v  3.8694402e-08 1 0.39999998
v  0.099999979 1.4 -0.30000007
v  0.099999994 1.3 -0.20000008
v  0.099999979 1.3 -0.30000004
v  0.099999994 1.4 -0.20000008
v  0.10000002 1.4 0.19999993
v  0.10000004 1.3 0.29999998
v  0.10000002 1.3 0.19999993
v  0.10000004 1.4 0.29999995
v  -0.099999964 1.1 0.29999998
v  -0.099999964 1 0.39999998
v  -0.099999964 1 0.29999998
v  -0.099999964 1.1 0.39999998
v  0.19999999 1.4 -0.20000008
v  0.19999999 1.3 -0.10000007
v  0.19999999 1.3 -0.20000008
v  0.19999999 1.4 -0.10000007
v  0.2 1.4 -7.2222015e-08
v  0.20000002 1.3 0.19999993
v  0.2 1.3 -6.7850877e-08
v  0.20000002 1.4 0.19999993
v  0.20000003 1.3 0.29999995
v  0.20000003 1.2 0.39999995
v  0.20000003 1.2 0.29999995
v  0.20000003 1.3000001 0.39999995
v  0.19999997 1.3 -0.40000007
v  0.19999997 1.2 -0.30000007
v  0.19999997 1.2 -0.40000007
v  0.19999997 1.3 -0.30000007
v  0.20000003 1 0.29999995
v  0.20000003 0.90000004 0.39999995
v  0.20000003 0.90000004 0.29999995
v  0.20000003 1 0.39999995
v  0.19999997 0.69999993 -0.40000007
v  0.19999997 0.60000002 -0.30000004
v  0.19999997 0.59999996 -0.40000004
v  0.19999997 0.69999999 -0.30000007
v  0.30000001 1.4 -0.10000008
v  0.30000001 1.3 -7.6593153e-08
v  0.30000001 1.3 -0.10000008
v  0.30000001 1.4 -8.0964291e-08
v  0.30000001 1.3 0.09999992
v  0.30000004 1.2 0.29999995
v  0.30000001 1.2 0.099999927
v  0.30000004 1.3 0.29999995
v  0.29999998 1.3 -0.30000007
v  0.29999998 1.2 -0.20000008
v  0.29999998 1.2 -0.30000007
v  0.29999998 1.3 -0.20000008
v  0.30000004 1 0.39999995
v  0.30000004 1 0.29999995
v  0.30000004 1.2 0.39999995
v  0.29999998 1.2 -0.40000007
v  0.29999998 0.79999995 -0.30000007
v  0.29999998 0.69999993 -0.40000007
v  0.29999998 0.69999999 -0.20000005
v  0.29999998 0.79999995 -0.20000005
v  0.30000001 0.80000001 0.099999942
v  0.30000004 0.69999999 0.19999996
v  0.30000001 0.69999999 0.099999949
v  0.30000004 0.80000001 0.19999996
v  -0.19999999 1.1 0.19999999
v  -0.19999997 1 0.30000001
v  -0.19999999 1 0.19999999
v  -0.19999997 1.1 0.30000001
v  0.39999998 1.3 -0.20000008
v  0.40000001 1.2 0.09999992
v  0.39999998 1.2 -0.20000008
v  0.40000004 1 0.19999993
v  0.40000001 1.3 0.099999912
v  0.40000004 1.2 0.29999995
v  0.40000001 0.80000001 0.099999934
v  0.40000004 1 0.29999995
v  0.40000004 0.80000001 0.19999996
v  0.39999998 0.79999995 -0.20000005
v  0.40000001 0.69999999 -5.9108597e-08
v  0.39999998 1.2 -0.30000007
v  0.40000001 0.60000002 0.099999942
v  0.39999998 0.69999999 -0.20000005
v  0.39999998 0.79999995 -0.30000007
v  0.40000001 0.60000002 -5.4737459e-08
v  -0.30000001 0.69999999 2.0873472e-09
v  -0.30000001 0.60000002 0.10000001
v  -0.30000001 0.60000002 6.4584853e-09
v  -0.30000001 0.69999999 0.10000001
v  -0.10000001 1.3 -0.20000005
v  -0.10000002 1.4 -0.30000007
v  -0.10000002 1.3 -0.30000004
v  -0.10000001 1.4 -0.20000005
v  -0.099999964 1.3 0.29999998
v  -0.099999979 1.4 0.19999996
v  -0.099999979 1.3 0.19999996
v  -0.099999964 1.4 0.29999995
v  -0.099999964 0.90000004 0.39999998
v  -0.099999964 0.90000004 0.29999998
v  0.10000004 1.1 0.39999998
v  0.10000004 1.2 0.29999998
v  0.10000004 1.1 0.29999998
v  0.10000004 1.2 0.39999998
v  0.10000004 0.90000004 0.39999998
v  0.10000004 1 0.29999998
v  0.10000004 0.90000004 0.29999998
v  0.10000004 1 0.39999998
v  -0.20000002 1.3 -0.10000004
v  -0.20000002 1.4 -0.20000005
v  -0.20000002 1.3 -0.20000005
v  -0.20000002 1.4 -0.10000004
v  -0.19999999 1.3 0.19999996
v  -0.2 1.4 -3.7252903e-08
v  -0.2 1.3 -3.2881765e-08
v  -0.19999999 1.4 0.19999996
v  -0.19999997 1.2 0.40000001
v  -0.19999997 1.3 0.30000001
v  -0.19999997 1.2 0.30000001
v  -0.19999997 1.3000001 0.40000001
v  -0.20000003 1.2 -0.30000001
v  -0.20000003 1.3 -0.40000001
v  -0.20000003 1.2 -0.40000001
v  -0.20000003 1.3 -0.30000001
v  -0.19999997 1 0.40000001
v  -0.19999997 1.1 0.40000001
v  -0.20000003 0.60000002 -0.29999998
v  -0.20000003 0.69999993 -0.40000001
v  -0.20000003 0.59999996 -0.39999998
v  -0.20000003 0.69999999 -0.30000001
v  -0.30000001 1.3 -2.4139485e-08
v  -0.30000001 1.4 -0.10000002
v  -0.30000001 1.3 -0.10000002
v  -0.30000001 1.4 -2.8510625e-08
v  -0.29999998 1.2 0.30000001
v  -0.30000001 1.3 0.099999979
v  -0.30000001 1.2 0.099999987
v  -0.29999998 1.3 0.30000001
v  -0.30000004 1.2 -0.20000002
v  -0.30000004 1.3 -0.30000001
v  -0.30000004 1.2 -0.30000001
v  -0.30000004 1.3 -0.20000002
v  -0.29999998 1.1 0.40000001
v  -0.29999998 1.1 0.30000001
v  -0.29999998 1.2 0.40000001
v  -0.30000004 0.79999995 -0.30000001
v  -0.30000004 1.2 -0.40000001
v  -0.30000004 0.69999993 -0.40000001
v  -0.30000004 0.69999999 -0.19999999
v  -0.30000004 0.79999995 -0.19999999
v  -0.29999998 0.69999999 0.20000002
v  -0.30000001 0.80000001 0.1
v  -0.29999998 0.80000001 0.20000002
v  0.20000002 1.1 0.19999996
v  0.20000002 1 0.19999996
v  0.20000003 1.1 0.39999995
v  0.30000001 0.60000002 0.099999949
v  0.30000001 0.69999999 -5.0366321e-08
v  0.30000001 0.60000002 -4.5995179e-08
v  -0.40000001 1.2 0.099999994
v  -0.40000004 1.3 -0.20000002
v  -0.40000004 1.2 -0.20000002
v  -0.39999998 1 0.19999999
v  -0.40000001 1.3 0.099999987
v  -0.39999998 1.2 0.30000001
v  -0.40000001 0.80000001 0.10000001
v  -0.39999998 1 0.30000001
v  -0.39999998 0.80000001 0.20000002
v  -0.40000004 0.79999995 -0.19999999
v  -0.40000001 0.69999999 1.0829627e-08
v  -0.40000004 1.2 -0.30000001
v  -0.40000001 0.60000002 0.10000002
v  -0.40000004 0.69999999 -0.19999999
v  -0.40000004 0.79999995 -0.30000001
v  -0.40000001 0.60000002 1.5200765e-08

# 33 UV coordinates
vt 0.083392262 0.83321548 0
vt 0.16654882 0.83321548 0
vt 0.083392262 0.66690236 0
vt 0.25 0.83316666 0
vt 0.33323959 0.66675001 0
vt 0.16676041 0.66675001 0
vt 0.83339226 0.66654879 0
vt 0.91654885 0.66654879 0
vt 0.83339226 0.50023568 0
vt 0.083392262 0.33321548 0
vt 0.16654882 0.33321548 0
vt 0.083392262 0.16690236 0
vt 0.083374999 0.66647917 0
vt 0.083374999 0.33352083 0
vt 0.16658333 0.5 0
vt 0.33323959 0.83324999 0
vt 0.16676041 0.83324999 0
vt 0.25 0.66683334 0
vt 0.083425783 0.33347201 0
vt 0.16662045 0.66638935 0
vt 0.16662045 0.33347201 0
vt 0.083379559 0.66652799 0
vt 0.16657421 0.66652799 0
vt 0.083379559 0.33361068 0
vt 0.083416663 0.5 0
vt 0.16662499 0.33352083 0
vt 0.16662499 0.66647917 0
vt 0.83321965 0.50008267 0
vt 0.41670802 0.83316797 0
vt 0.33340567 0.50008267 0
vt 0.49994576 0.83320677 0
vt 0.16682936 0.83320677 0
vt 0.58322489 0.50025308 0

# 6 vertex normals
vn 0.050000001 -1.9106854e-16 -4.371139e-09
vn -0.050000001 1.9106854e-16 4.371139e-09
vn 0 -0.050000001 2.1855695e-09
vn 0 0.050000001 -2.1855695e-09
vn -4.371139e-09 -2.1855695e-09 -0.050000001
vn 4.371139e-09 2.1855695e-09 0.050000001

# Mesh 'Plane-tex' with 352 faces
g Plane-tex
usemtl lambert0
f  1/1/1 2/2/1 3/3/1
f  1/1/1 4/2/1 2/3/1
f  5/1/1 6/2/1 7/3/1
f  5/1/1 8/2/1 6/3/1
f  9/1/1 10/2/1 11/3/1
f  9/1/1 12/2/1 10/3/1
f  13/1/1 14/2/1 15/3/1
f  13/1/1 16/2/1 14/3/1
f  17/1/1 18/2/1 19/3/1
f  17/1/1 20/2/1 18/3/1
f  21/1/1 22/2/1 23/3/1
f  21/1/1 24/2/1 22/3/1
f  25/1/1 26/2/1 27/3/1
f  25/1/1 28/2/1 26/3/1
f  29/1/1 30/2/1 31/3/1
f  29/1/1 32/2/1 30/3/1
f  33/1/1 34/2/1 35/3/1
f  33/1/1 36/2/1 34/3/1
f  37/1/1 38/2/1 39/3/1
f  37/1/1 40/2/1 38/3/1
f  41/1/1 42/2/1 43/3/1
f  41/1/1 44/2/1 42/3/1
f  45/1/1 46/2/1 47/3/1
f  45/1/1 48/2/1 46/3/1
f  49/1/1 50/2/1 51/3/1
f  49/1/1 52/2/1 50/3/1
f  53/1/1 54/2/1 55/3/1
f  53/1/1 56/2/1 54/3/1
f  50/1/1 57/2/1 58/3/1
f  50/1/1 59/2/1 57/3/1
f  60/1/1 61/2/1 62/3/1
f  61/4/1 63/5/1 62/6/1
f  60/1/1 55/2/1 61/3/1
f  61/7/1 64/8/1 63/9/1
f  65/7/1 66/8/1 67/9/1
f  65/7/1 68/8/1 66/9/1
f  69/10/1 70/11/1 71/12/1
f  69/10/1 72/11/1 70/12/1
f  73/1/1 74/2/1 75/3/1
f  75/1/1 74/2/1 76/3/1
f  73/1/1 77/2/1 74/3/1
f  76/1/1 74/2/1 78/3/1
f  75/1/1 76/2/1 79/3/1
f  78/1/1 80/2/1 76/3/1
f  76/1/1 81/2/1 79/3/1
f  75/1/1 79/2/1 82/3/1
f  82/1/1 79/2/1 83/3/1
f  84/1/1 75/2/1 82/3/1
f  83/1/1 79/2/1 85/3/1
f  82/1/1 83/2/1 86/3/1
f  84/1/1 82/2/1 87/3/1
f  83/1/1 85/2/1 88/3/1
f  89/1/1 90/2/1 91/3/1
f  89/1/1 92/2/1 90/3/1
f  93/2/2 94/1/2 95/3/2
f  96/2/2 94/1/2 93/3/2
f  97/2/2 98/1/2 99/3/2
f  100/2/2 98/1/2 97/3/2
f  101/2/2 19/1/2 102/3/2
f  18/2/2 19/1/2 101/3/2
f  103/2/2 104/1/2 105/3/2
f  106/2/2 104/1/2 103/3/2
f  107/2/2 108/1/2 109/3/2
f  110/2/2 108/1/2 107/3/2
f  111/2/2 112/1/2 113/3/2
f  114/2/2 112/1/2 111/3/2
f  115/2/2 116/1/2 117/3/2
f  118/2/2 116/1/2 115/3/2
f  119/2/2 120/1/2 121/3/2
f  122/2/2 120/1/2 119/3/2
f  123/2/2 124/1/2 125/3/2
f  126/2/2 124/1/2 123/3/2
f  127/2/2 72/1/2 70/3/2
f  128/2/2 72/1/2 127/3/2
f  129/2/2 130/1/2 131/3/2
f  132/2/2 130/1/2 129/3/2
f  133/2/2 134/1/2 135/3/2
f  136/2/2 134/1/2 133/3/2
f  137/2/2 138/1/2 139/3/2
f  140/2/2 138/1/2 137/3/2
f  141/2/2 142/1/2 143/3/2
f  144/2/2 142/1/2 141/3/2
f  145/2/2 137/1/2 146/3/2
f  147/2/2 137/1/2 145/3/2
f  148/2/2 149/1/2 150/3/2
f  151/5/2 148/4/2 150/6/2
f  143/2/2 149/1/2 148/3/2
f  152/8/2 148/7/2 151/9/2
f  153/8/2 154/7/2 92/9/2
f  155/8/2 154/7/2 153/9/2
f  37/11/2 156/10/2 157/12/2
f  158/13/2 156/14/2 37/15/2
f  40/2/2 158/1/2 37/3/2
f  159/2/2 160/1/2 161/3/2
f  67/2/2 160/1/2 159/3/2
f  162/2/2 163/1/2 164/3/2
f  162/2/2 164/1/2 165/3/2
f  166/2/2 163/1/2 162/3/2
f  162/2/2 165/1/2 167/3/2
f  165/2/2 164/1/2 168/3/2
f  169/2/2 167/1/2 165/3/2
f  170/2/2 165/1/2 168/3/2
f  168/2/2 164/1/2 171/3/2
f  168/2/2 171/1/2 172/3/2
f  164/2/2 173/1/2 171/3/2
f  168/2/2 172/1/2 174/3/2
f  172/2/2 171/1/2 175/3/2
f  171/2/2 173/1/2 176/3/2
f  174/2/2 172/1/2 177/3/2
f  90/2/3 177/1/3 91/3/3
f  174/2/3 177/1/3 90/3/3
f  42/2/3 131/1/3 43/3/3
f  129/2/3 131/1/3 42/3/3
f  85/2/3 161/1/3 88/3/3
f  159/2/3 161/1/3 85/3/3
f  89/2/3 175/1/3 151/3/3
f  151/8/3 132/7/3 89/9/3
f  172/2/3 175/1/3 89/3/3
f  132/8/3 160/7/3 89/9/3
f  151/16/3 150/17/3 132/18/3
f  67/8/3 89/7/3 160/9/3
f  44/8/3 160/7/3 132/9/3
f  132/2/3 150/1/3 130/3/3
f  92/8/3 89/7/3 67/9/3
f  44/8/3 63/7/3 160/9/3
f  66/8/3 92/7/3 67/9/3
f  160/2/3 63/1/3 83/3/3
f  44/4/3 62/6/3 63/5/3
f  153/8/3 92/7/3 66/9/3
f  83/2/3 63/1/3 86/3/3
f  41/2/3 62/1/3 44/3/3
f  152/2/3 176/1/3 148/3/3
f  171/2/3 176/1/3 152/3/3
f  155/2/3 168/1/3 154/3/3
f  170/2/3 168/1/3 155/3/3
f  81/2/3 65/1/3 79/3/3
f  68/2/3 65/1/3 81/3/3
f  82/2/3 61/1/3 87/3/3
f  64/2/3 61/1/3 82/3/3
f  6/2/3 102/1/3 7/3/3
f  101/2/3 102/1/3 6/3/3
f  38/2/3 109/1/3 39/3/3
f  107/2/3 109/1/3 38/3/3
f  70/19/3 165/20/3 71/21/3
f  169/22/3 165/23/3 70/24/3
f  18/2/3 70/1/3 19/3/3
f  127/2/3 70/1/3 18/3/3
f  58/25/3 157/26/3 76/27/3
f  80/2/3 58/1/3 76/3/3
f  37/11/3 157/10/3 58/12/3
f  57/2/3 37/1/3 58/3/3
f  40/2/3 37/1/3 57/3/3
f  128/2/3 146/1/3 72/3/3
f  145/2/3 146/1/3 128/3/3
f  69/2/3 156/1/3 3/3/3
f  17/2/3 69/1/3 3/3/3
f  105/2/3 3/1/3 156/3/3
f  2/2/3 17/1/3 3/3/3
f  72/2/3 69/1/3 17/3/3
f  158/2/3 105/1/3 156/3/3
f  20/2/3 17/1/3 2/3/3
f  103/2/3 105/1/3 158/3/3
f  106/2/3 1/1/3 104/3/3
f  4/2/3 1/1/3 106/3/3
f  19/1/4 8/2/4 5/3/4
f  19/1/4 18/2/4 8/3/4
f  108/1/4 40/2/4 37/3/4
f  108/1/4 110/2/4 40/3/4
f  173/1/4 141/2/4 143/3/4
f  173/1/4 164/2/4 141/3/4
f  162/1/4 137/2/4 139/3/4
f  162/1/4 167/2/4 137/3/4
f  137/1/4 119/2/4 121/3/4
f  137/1/4 147/2/4 119/3/4
f  149/1/4 123/2/4 125/3/4
f  149/1/4 143/2/4 123/3/4
f  31/1/4 59/2/4 50/3/4
f  31/1/4 30/2/4 59/3/4
f  35/1/4 55/2/4 60/3/4
f  35/1/4 34/2/4 55/3/4
f  51/1/4 78/2/4 74/3/4
f  51/1/4 50/2/4 78/3/4
f  55/1/4 75/2/4 84/3/4
f  55/1/4 54/2/4 75/3/4
f  163/1/4 135/2/4 144/3/4
f  144/1/4 135/2/4 111/3/4
f  163/1/4 166/2/4 135/3/4
f  144/1/4 111/2/4 113/3/4
f  166/1/4 133/2/4 135/3/4
f  142/1/4 144/2/4 113/3/4
f  166/1/4 138/2/4 133/3/4
f  142/1/4 113/2/4 126/3/4
f  117/1/4 133/2/4 138/3/4
f  126/1/4 113/2/4 93/3/4
f  117/1/4 138/2/4 115/3/4
f  126/1/4 93/2/4 95/3/4
f  115/1/4 138/2/4 140/3/4
f  124/1/4 126/2/4 95/3/4
f  140/1/4 120/2/4 115/3/4
f  124/1/4 95/2/4 33/3/4
f  115/1/4 120/2/4 97/3/4
f  95/1/4 11/2/4 33/3/4
f  97/1/4 120/2/4 122/3/4
f  115/1/4 97/2/4 99/3/4
f  11/1/4 36/2/4 33/3/4
f  32/1/4 97/2/4 122/3/4
f  11/1/4 23/2/4 36/3/4
f  14/1/4 97/2/4 32/3/4
f  36/1/4 23/2/4 56/3/4
f  11/1/4 10/2/4 23/3/4
f  14/1/4 32/2/4 29/3/4
f  23/1/4 47/2/4 56/3/4
f  36/1/4 56/2/4 53/3/4
f  15/1/4 14/2/4 29/3/4
f  73/1/4 56/2/4 47/3/4
f  23/1/4 22/2/4 47/3/4
f  15/1/4 29/2/4 26/3/4
f  73/1/4 47/2/4 77/3/4
f  26/1/4 29/2/4 52/3/4
f  47/1/4 46/2/4 77/3/4
f  26/1/4 52/2/4 49/3/4
f  46/1/4 49/2/4 77/3/4
f  27/1/4 26/2/4 49/3/4
f  27/1/4 49/2/4 46/3/4
f  134/1/4 116/2/4 114/3/4
f  25/1/4 114/2/4 116/3/4
f  134/1/4 136/2/4 116/3/4
f  116/1/4 98/2/4 25/3/4
f  25/1/4 112/2/4 114/3/4
f  98/1/4 13/2/4 25/3/4
f  116/1/4 118/2/4 98/3/4
f  25/1/4 96/2/4 112/3/4
f  13/1/4 28/2/4 25/3/4
f  98/1/4 16/2/4 13/3/4
f  25/1/4 12/2/4 96/3/4
f  98/1/4 100/2/4 16/3/4
f  94/1/4 96/2/4 12/3/4
f  24/1/4 12/2/4 25/3/4
f  94/1/4 12/2/4 9/3/4
f  24/1/4 25/2/4 48/3/4
f  12/1/4 24/2/4 21/3/4
f  24/1/4 48/2/4 45/3/4
f  177/1/5 89/2/5 91/3/5
f  177/1/5 172/2/5 89/3/5
f  161/1/5 83/2/5 88/3/5
f  161/1/5 160/2/5 83/3/5
f  135/1/5 114/2/5 111/3/5
f  135/1/5 134/2/5 114/3/5
f  22/1/5 45/2/5 47/3/5
f  22/1/5 24/2/5 45/3/5
f  175/1/5 152/2/5 151/3/5
f  175/1/5 171/2/5 152/3/5
f  164/1/5 144/2/5 141/3/5
f  164/1/5 163/2/5 144/3/5
f  113/1/5 96/2/5 93/3/5
f  113/1/5 112/2/5 96/3/5
f  10/1/5 21/2/5 23/3/5
f  10/1/5 12/2/5 21/3/5
f  54/1/5 73/2/5 75/3/5
f  54/1/5 56/2/5 73/3/5
f  63/1/5 82/2/5 86/3/5
f  63/1/5 64/2/5 82/3/5
f  176/1/5 143/2/5 148/3/5
f  176/1/5 173/2/5 143/3/5
f  143/1/5 126/2/5 123/3/5
f  143/1/5 142/2/5 126/3/5
f  95/1/5 9/2/5 11/3/5
f  95/1/5 94/2/5 9/3/5
f  34/1/5 53/2/5 55/3/5
f  34/1/5 36/2/5 53/3/5
f  61/1/5 84/2/5 87/3/5
f  61/1/5 55/2/5 84/3/5
f  150/1/5 125/2/5 130/3/5
f  130/1/5 125/2/5 35/3/5
f  150/1/5 149/2/5 125/3/5
f  125/1/5 33/2/5 35/3/5
f  130/1/5 35/2/5 41/3/5
f  125/1/5 124/2/5 33/3/5
f  41/1/5 35/2/5 60/3/5
f  131/1/5 130/2/5 41/3/5
f  41/1/5 60/2/5 62/3/5
f  131/1/5 41/2/5 43/3/5
f  70/1/5 17/2/5 19/3/5
f  70/1/5 72/2/5 17/3/5
f  102/1/5 5/2/5 7/3/5
f  102/1/5 19/2/5 5/3/5
f  109/1/5 37/2/5 39/3/5
f  109/1/5 108/2/5 37/3/5
f  92/2/6 174/1/6 90/3/6
f  168/2/6 174/1/6 92/3/6
f  154/2/6 168/1/6 92/3/6
f  138/2/6 162/1/6 139/3/6
f  166/2/6 162/1/6 138/3/6
f  77/2/6 51/1/6 74/3/6
f  49/2/6 51/1/6 77/3/6
f  159/2/6 85/1/6 67/3/6
f  67/2/6 85/1/6 79/3/6
f  65/2/6 67/1/6 79/3/6
f  116/2/6 133/1/6 117/3/6
f  136/2/6 133/1/6 116/3/6
f  48/2/6 27/1/6 46/3/6
f  25/2/6 27/1/6 48/3/6
f  170/2/6 155/1/6 165/3/6
f  155/18/6 71/16/6 165/17/6
f  68/28/6 71/29/6 155/30/6
f  153/8/6 68/7/6 155/9/6
f  157/31/6 71/32/6 68/33/6
f  153/8/6 66/7/6 68/9/6
f  157/16/6 68/18/6 76/17/6
f  156/8/6 71/7/6 157/9/6
f  76/2/6 68/1/6 81/3/6
f  69/8/6 71/7/6 156/9/6
f  98/2/6 115/1/6 99/3/6
f  118/2/6 115/1/6 98/3/6
f  28/2/6 15/1/6 26/3/6
f  13/2/6 15/1/6 28/3/6
f  146/25/6 169/27/6 70/26/6
f  72/11/6 146/10/6 70/12/6
f  167/2/6 169/1/6 146/3/6
f  137/2/6 167/1/6 146/3/6
f  120/2/6 137/1/6 121/3/6
f  140/2/6 137/1/6 120/3/6
f  16/2/6 97/1/6 14/3/6
f  100/2/6 97/1/6 16/3/6
f  104/2/6 3/1/6 105/3/6
f  1/2/6 3/1/6 104/3/6
f  52/2/6 31/1/6 50/3/6
f  29/2/6 31/1/6 52/3/6
f  78/2/6 58/1/6 80/3/6
f  50/2/6 58/1/6 78/3/6
f  119/2/6 145/1/6 128/3/6
f  128/2/6 20/1/6 119/3/6
f  147/2/6 145/1/6 119/3/6
f  20/2/6 4/1/6 119/3/6
f  128/2/6 127/1/6 20/3/6
f  119/2/6 4/1/6 122/3/6
f  4/2/6 20/1/6 2/3/6
f  20/2/6 127/1/6 18/3/6
f  4/2/6 32/1/6 122/3/6
f  4/2/6 106/1/6 32/3/6
f  32/2/6 106/1/6 30/3/6
f  106/2/6 103/1/6 30/3/6
f  30/2/6 103/1/6 158/3/6
f  30/2/6 158/1/6 59/3/6
f  158/2/6 57/1/6 59/3/6
f  40/2/6 57/1/6 158/3/6
f  8/2/6 101/1/6 6/3/6
f  18/2/6 101/1/6 8/3/6
f  40/2/6 107/1/6 38/3/6
f  110/2/6 107/1/6 40/3/6
f  44/2/6 129/1/6 42/3/6
f  132/2/6 129/1/6 44/3/6

