# Blender 5.1.2
# www.blender.org
mtllib YumenoBody.mtl
o YumenoBody
v 0.200000 0.700000 -0.200000
v 0.200000 0.200000 0.100000
v 0.200000 0.200000 -0.200000
v 0.200000 0.700000 -0.200000
v 0.200000 0.700000 0.100000
v 0.200000 0.200000 0.100000
v -0.200000 0.200000 0.100000
v -0.200000 0.700000 -0.200000
v -0.200000 0.200000 -0.200000
v -0.200000 0.700000 0.100000
v -0.200000 0.700000 -0.200000
v -0.200000 0.200000 0.100000
v 0.200000 0.200000 0.100000
v -0.200000 0.200000 -0.200000
v 0.200000 0.200000 -0.200000
v -0.200000 0.200000 0.100000
v 0.200000 0.200000 0.100000
v -0.200000 0.700000 -0.200000
v 0.200000 0.700000 0.100000
v 0.200000 0.700000 -0.200000
v -0.200000 0.700000 -0.200000
v -0.200000 0.700000 0.100000
v 0.200000 0.700000 0.100000
v -0.200000 0.200000 -0.200000
v -0.200000 0.200000 -0.200000
v -0.200000 0.700000 -0.200000
v 0.200000 0.700000 0.100000
v -0.200000 0.200000 0.100000
v 0.200000 0.200000 0.100000
v -0.200000 0.700000 0.100000
v -0.200000 0.200000 0.100000
v 0.200000 0.700000 0.100000
vn 1.0000 -0.0000 -0.0000
vn -1.0000 -0.0000 -0.0000
vn -0.0000 -1.0000 -0.0000
vn -0.0000 1.0000 -0.0000
vn -0.0000 -0.0000 -1.0000
vn -0.0000 -0.0000 1.0000
vt 0.714387 0.860993
vt 0.856941 0.722281
vt 0.714387 0.722281
vt 0.714488 0.861052
vt 0.857042 0.861052
vt 0.857042 0.722340
vt 0.428369 0.583274
vt 0.285815 0.583274
vt 0.285815 0.500118
vt 0.143047 0.583396
vt 0.333238 0.708209
vt 0.333238 0.583396
vt 0.785610 0.666553
vt 0.785610 0.541724
vt 0.500208 0.541724
vt 0.333273 0.499849
vt 0.142978 0.083409
vt 0.333273 0.083409
vt 0.500070 0.499927
vt 0.500070 0.083479
vt 0.785575 0.499927
s 0
usemtl lambert0
f 1/1/1 2/2/1 3/3/1
f 4/4/1 5/5/1 6/6/1
f 7/2/2 8/1/2 9/3/2
f 10/5/2 11/4/2 12/6/2
f 13/7/3 14/8/3 15/9/3
f 16/7/3 14/8/3 17/9/3
f 18/10/4 19/11/4 20/12/4
f 21/13/4 22/14/4 23/15/4
f 24/2/5 1/1/5 3/3/5
f 25/6/5 26/5/5 4/4/5
f 27/16/6 28/17/6 29/18/6
f 30/19/6 31/20/6 32/21/6
