# File produced by Open Asset Import Library (http://www.assimp.sf.net)
# (assimp v5.0.3029775719)

mtllib YumenoTail.mtl

# 16 vertex positions
v  -2.299759e-08 0.19999999 -0.30000001
v  -1.4255312e-08 0.099999979 -0.20000002
v  -2.299759e-08 0.099999979 -0.30000001
v  -1.4255312e-08 0.19999999 -0.20000002
v  0.099999979 0.39999998 -0.30000004
v  0.099999994 0.19999999 -0.20000003
v  0.099999979 0.19999999 -0.30000004
v  0.099999994 0.39999998 -0.20000005
v  -0.10000001 0.099999979 -0.20000002
v  -0.10000002 0.29999998 -0.30000001
v  -0.10000002 0.099999979 -0.30000001
v  -0.10000001 0.29999998 -0.20000002
v  -1.4255312e-08 0.29999998 -0.20000003
v  -2.299759e-08 0.39999998 -0.30000004
v  -2.299759e-08 0.29999998 -0.30000004
v  -1.4255312e-08 0.39999998 -0.20000003

# 15 UV coordinates
vt 0.66678452 0.66643095 0
vt 0.83309764 0.66643095 0
vt 0.66678452 0.33380473 0
vt 0.16678452 0.66643095 0
vt 0.33309764 0.66643095 0
vt 0.16678452 0.33380473 0
vt 0.66652799 0.66629684 0
vt 0.33361068 0.33351824 0
vt 0.66652799 0.33351824 0
vt 0.33347201 0.66648179 0
vt 0.33347201 0.33370313 0
vt 0.66638935 0.66648179 0
vt 0.66647917 0.66649997 0
vt 0.33352083 0.66649997 0
vt 0.5 0.33366665 0

# 6 vertex normals
vn 0.050000001 -1.9106854e-16 -4.371139e-09
vn -0.050000001 1.9106854e-16 4.371139e-09
vn 0 -0.050000001 2.1855695e-09
vn 0 0.050000001 -2.1855695e-09
vn -4.371139e-09 -2.1855695e-09 -0.050000001
vn 4.371139e-09 2.1855695e-09 0.050000001

# Mesh 'Plane-tex' with 28 faces
g Plane-tex
usemtl lambert0
f  1/1/1 2/2/1 3/3/1
f  1/1/1 4/2/1 2/3/1
f  5/4/1 6/5/1 7/6/1
f  5/4/1 8/5/1 6/6/1
f  9/7/2 10/8/2 11/9/2
f  12/10/2 10/11/2 9/12/2
f  13/5/2 14/4/2 15/6/2
f  16/5/2 14/4/2 13/6/2
f  2/2/3 11/1/3 3/3/3
f  9/2/3 11/1/3 2/3/3
f  6/5/3 1/4/3 7/6/3
f  4/5/3 1/4/3 6/6/3
f  10/4/4 13/5/4 15/6/4
f  10/4/4 12/5/4 13/6/4
f  14/4/4 8/5/4 5/6/4
f  14/4/4 16/5/4 8/6/4
f  11/1/5 1/2/5 3/3/5
f  11/13/5 10/14/5 1/15/5
f  10/4/5 15/5/5 1/6/5
f  7/4/5 1/5/5 15/6/5
f  7/4/5 15/5/5 5/6/5
f  15/4/5 14/5/5 5/6/5
f  4/2/6 9/1/6 2/3/6
f  12/14/6 9/13/6 4/15/6
f  13/5/6 12/4/6 4/6/6
f  4/5/6 6/4/6 13/6/6
f  13/5/6 6/4/6 8/6/6
f  16/5/6 13/4/6 8/6/6

