# File produced by Open Asset Import Library (http://www.assimp.sf.net)
# (assimp v5.0.3029775719)

mtllib CoffeeChair.mtl

# 52 vertex positions
v  1.4901161e-08 0.80000001 0.099999979
v  2.2351742e-08 0.40000004 0.19999999
v  1.4901161e-08 0.40000004 0.099999994
v  2.2351742e-08 0.80000001 0.19999997
v  0.2 0.40000004 0.099999979
v  0.2 0.90000004 0.099999964
v  0.20000003 0.90000004 0.19999996
v  0.20000003 0 0.19999999
v  0.2 0.30000001 0.099999979
v  0.2 0 0.099999994
v  0.19999999 0.30000001 -0.20000003
v  0.19999999 0.40000001 -0.30000004
v  0.19999999 0 -0.30000001
v  0.19999999 0 -0.20000002
v  -0.19999999 0.80000001 0.099999994
v  -0.19999999 0.40000004 0.19999999
v  -0.19999999 0.40000004 0.10000001
v  -0.19999999 0.80000001 0.19999997
v  -0.19999999 0.30000001 0.10000001
v  -0.19999999 0 0.20000002
v  -0.19999999 0 0.10000002
v  -0.19999999 0.30000001 0.19999999
v  -0.20000002 0.30000001 -0.29999998
v  -0.20000002 0 -0.19999999
v  -0.20000002 0 -0.29999998
v  -0.20000002 0.30000001 -0.2
v  -0.099999979 0.40000004 0.19999999
v  -0.099999987 0.80000001 0.099999979
v  -0.099999987 0.40000004 0.099999994
v  -0.099999979 0.80000001 0.19999997
v  0.10000002 0.40000004 0.19999997
v  0.10000002 0.80000001 0.099999964
v  0.10000002 0.40000004 0.099999979
v  0.10000002 0.80000001 0.19999996
v  0.10000002 0 0.19999999
v  0.10000002 0.30000001 0.099999979
v  0.10000002 0 0.099999994
v  0.10000002 0.30000001 0.19999997
v  0.099999994 0 -0.20000002
v  0.099999994 0.30000001 -0.30000001
v  0.099999994 0 -0.29999998
v  0.099999994 0.30000001 -0.20000003
v  -0.29999998 0.90000004 0.099999994
v  -0.29999998 0.40000004 0.10000001
v  -0.29999998 0.90000004 0.19999999
v  -0.29999998 0 0.20000005
v  -0.29999998 0.30000001 0.10000001
v  -0.29999998 0 0.10000002
v  -0.30000001 0.30000001 -0.2
v  -0.30000004 0.40000001 -0.29999998
v  -0.30000004 0 -0.29999998
v  -0.30000001 0 -0.19999999

# 33 UV coordinates
vt 0.11118968 0.74982321 0
vt 0.22206509 0.74982321 0
vt 0.11118968 0.50035352 0
vt 0.44452301 0.74982321 0
vt 0.5553984 0.74982321 0
vt 0.44452301 0.50035352 0
vt 0.27787241 0.50013101 0
vt 0.35185912 0.74973798 0
vt 0.44434252 0.50013101 0
vt 0.33328363 0.74977642 0
vt 0.37024614 0.74977642 0
vt 0.22239614 0.50044721 0
vt 0.3702836 0.74984384 0
vt 0.33329862 0.50031233 0
vt 0.2223437 0.74984384 0
vt 0.81471151 0.41681197 0
vt 0.62972003 0.41681197 0
vt 0.70371664 0.74970937 0
vt 0.44419444 0.74949998 0
vt 0.33333334 0.50024998 0
vt 0.22247222 0.50024998 0
vt 0.22237828 0.50023407 0
vt 0.2778168 0.50023407 0
vt 0.38869381 0.74953187 0
vt 0.2223437 0.50015616 0
vt 0.3702836 0.50015616 0
vt 0.33329862 0.74968767 0
vt 0.33328363 0.50022358 0
vt 0.22239614 0.74955279 0
vt 0.37024614 0.50022358 0
vt 0.27787241 0.74986899 0
vt 0.44434252 0.74986899 0
vt 0.35185912 0.50026202 0

# 6 vertex normals
vn 0.050000001 -1.9106854e-16 -4.371139e-09
vn -0.050000001 1.9106854e-16 4.371139e-09
vn 0 -0.050000001 2.1855695e-09
vn 0 0.050000001 -2.1855695e-09
vn -4.371139e-09 -2.1855695e-09 -0.050000001
vn 4.371139e-09 2.1855695e-09 0.050000001

# Mesh 'Plane-tex' with 108 faces
g Plane-tex
usemtl lambert0
f  1/1/1 2/2/1 3/3/1
f  1/1/1 4/2/1 2/3/1
f  5/4/1 6/5/1 7/6/1
f  8/7/1 5/8/1 7/9/1
f  9/10/1 5/11/1 8/12/1
f  9/1/1 8/2/1 10/3/1
f  5/4/1 9/5/1 11/6/1
f  12/4/1 5/5/1 11/6/1
f  12/13/1 11/14/1 13/15/1
f  11/1/1 14/2/1 13/3/1
f  15/4/1 16/5/1 17/6/1
f  15/4/1 18/5/1 16/6/1
f  19/1/1 20/2/1 21/3/1
f  19/1/1 22/2/1 20/3/1
f  23/1/1 24/2/1 25/3/1
f  23/1/1 26/2/1 24/3/1
f  27/2/2 28/1/2 29/3/2
f  30/2/2 28/1/2 27/3/2
f  31/5/2 32/4/2 33/6/2
f  34/5/2 32/4/2 31/6/2
f  35/2/2 36/1/2 37/3/2
f  38/2/2 36/1/2 35/3/2
f  39/2/2 40/1/2 41/3/2
f  42/2/2 40/1/2 39/3/2
f  43/5/2 44/4/2 45/6/2
f  44/8/2 46/7/2 45/9/2
f  44/11/2 47/10/2 46/12/2
f  46/2/2 47/1/2 48/3/2
f  47/5/2 44/4/2 49/6/2
f  44/5/2 50/4/2 49/6/2
f  49/14/2 50/13/2 51/15/2
f  52/2/2 49/1/2 51/3/2
f  24/2/3 51/1/3 25/3/3
f  52/2/3 51/1/3 24/3/3
f  20/2/3 48/1/3 21/3/3
f  46/2/3 48/1/3 20/3/3
f  8/2/3 37/1/3 10/3/3
f  35/2/3 37/1/3 8/3/3
f  14/2/3 41/1/3 13/3/3
f  39/2/3 41/1/3 14/3/3
f  19/5/3 49/4/3 26/6/3
f  19/2/3 26/1/3 36/3/3
f  47/5/3 49/4/3 19/6/3
f  38/5/3 19/4/3 36/6/3
f  36/2/3 26/1/3 42/3/3
f  22/5/3 19/4/3 38/6/3
f  36/5/3 42/4/3 9/6/3
f  26/5/3 23/4/3 42/6/3
f  9/5/3 42/4/3 11/6/3
f  42/5/3 23/4/3 40/6/3
f  30/5/3 15/4/3 28/6/3
f  18/5/3 15/4/3 30/6/3
f  34/5/3 1/4/3 32/6/3
f  4/5/3 1/4/3 34/6/3
f  12/16/4 50/17/4 29/18/4
f  50/19/4 17/20/4 29/21/4
f  29/22/4 3/23/4 12/24/4
f  17/4/4 27/5/4 29/6/4
f  50/4/4 44/5/4 17/6/4
f  3/21/4 33/20/4 12/19/4
f  17/4/4 16/5/4 27/6/4
f  33/4/4 5/5/4 12/6/4
f  3/4/4 31/5/4 33/6/4
f  3/4/4 2/5/4 31/6/4
f  43/4/4 7/5/4 6/6/4
f  43/4/4 45/5/4 7/6/4
f  48/1/5 19/2/5 21/3/5
f  48/1/5 47/2/5 19/3/5
f  44/4/5 15/5/5 17/6/5
f  44/4/5 43/5/5 15/6/5
f  28/4/5 15/5/5 43/6/5
f  6/4/5 28/5/5 43/6/5
f  1/4/5 28/5/5 6/6/5
f  32/4/5 1/5/5 6/6/5
f  29/1/5 28/2/5 1/3/5
f  5/4/5 32/5/5 6/6/5
f  29/1/5 1/2/5 3/3/5
f  5/4/5 33/5/5 32/6/5
f  37/1/5 9/2/5 10/3/5
f  37/1/5 36/2/5 9/3/5
f  51/1/5 23/2/5 25/3/5
f  51/25/5 50/26/5 23/27/5
f  23/4/5 50/5/5 12/6/5
f  40/4/5 23/5/5 12/6/5
f  13/15/5 40/14/5 12/13/5
f  13/1/5 41/2/5 40/3/5
f  22/2/6 46/1/6 20/3/6
f  46/12/6 22/10/6 16/11/6
f  45/9/6 46/7/6 16/8/6
f  16/5/6 22/4/6 27/6/6
f  18/5/6 45/4/6 16/6/6
f  27/5/6 22/4/6 38/6/6
f  18/5/6 30/4/6 45/6/6
f  2/5/6 27/4/6 38/6/6
f  30/5/6 7/4/6 45/6/6
f  31/5/6 2/4/6 38/6/6
f  4/2/6 27/1/6 2/3/6
f  30/5/6 4/4/6 7/6/6
f  38/28/6 8/29/6 31/30/6
f  30/2/6 27/1/6 4/3/6
f  4/5/6 34/4/6 7/6/6
f  8/31/6 7/32/6 31/33/6
f  35/2/6 8/1/6 38/3/6
f  34/5/6 31/4/6 7/6/6
f  26/2/6 52/1/6 24/3/6
f  49/2/6 52/1/6 26/3/6
f  11/2/6 39/1/6 14/3/6
f  42/2/6 39/1/6 11/3/6

