# File produced by Open Asset Import Library (http://www.assimp.sf.net)
# (assimp v5.0.3029775719)

mtllib CoffeeTable.mtl

# 136 vertex positions
v  -1.4901161e-08 0.70000005 -0.20000003
v  -3.7252903e-09 0.60000002 -0.10000002
v  -1.4901161e-08 0.60000002 -0.20000003
v  -3.7252903e-09 0.70000005 -0.10000002
v  3.7252903e-09 0.70000005 -2.6077032e-08
v  1.4901161e-08 0.60000002 0.099999979
v  3.7252903e-09 0.60000002 -1.8626451e-08
v  1.4901161e-08 0.70000005 0.099999979
v  3.7252903e-09 0.2 -3.7252903e-09
v  -3.7252903e-09 0.2 -0.10000001
v  1.4901161e-08 0.099999994 0.10000001
v  3.7252903e-09 0 7.4505806e-09
v  2.2351742e-08 0 0.20000002
v  1.4901161e-08 0.2 0.10000001
v  2.2351742e-08 0.099999994 0.19999999
v  -1.4901161e-08 0.099999994 -0.2
v  -1.4901161e-08 0.2 -0.2
v  -3.7252903e-09 0 -0.099999994
v  -2.2351742e-08 0 -0.29999998
v  -2.2351742e-08 0.099999994 -0.29999998
v  0.099999964 0.79999995 -0.60000002
v  0.099999964 0.69999999 -0.5
v  0.099999964 0.69999999 -0.60000002
v  0.099999964 0.79999995 -0.50000006
v  0.10000005 0.80000007 0.39999998
v  0.10000005 0.70000005 0.5
v  0.10000005 0.70000005 0.40000001
v  0.10000005 0.80000007 0.5
v  0.10000001 0.70000005 -0.10000004
v  0.10000001 0.60000002 -2.9802322e-08
v  0.10000001 0.60000002 -0.10000003
v  0.10000001 0.70000005 -3.7252903e-08
v  0.10000001 0.2 -0.10000002
v  0.10000001 0.099999994 -7.4505806e-09
v  0.10000001 0.099999994 -0.10000001
v  0.10000001 0.2 -1.4901161e-08
v  0.19999996 0.79999995 -0.50000006
v  0.19999997 0.69999999 -0.40000004
v  0.19999996 0.69999999 -0.50000006
v  0.19999997 0.79999995 -0.40000007
v  0.20000003 0.80000007 0.29999992
v  0.20000003 0.70000005 0.39999998
v  0.20000003 0.70000005 0.29999995
v  0.20000003 0.80000007 0.39999995
v  0.2 0.099999994 -0.10000002
v  0.2 0 -1.1175871e-08
v  0.2 0 -0.10000001
v  0.2 0.099999994 -1.4901161e-08
v  0.29999995 0.79999995 -0.40000007
v  0.29999995 0.70000005 -0.30000004
v  0.29999995 0.69999999 -0.40000004
v  0.29999995 0.80000001 -0.30000007
v  0.30000001 0.80000001 0.19999994
v  0.30000001 0.70000005 0.29999995
v  0.30000001 0.70000005 0.19999994
v  0.30000001 0.80000007 0.29999992
v  0.39999998 0.80000001 -0.30000007
v  0.40000001 0.70000005 -0.20000008
v  0.39999998 0.70000005 -0.30000004
v  0.40000001 0.80000001 -0.20000008
v  0.40000001 0.80000001 0.099999934
v  0.40000004 0.70000005 0.19999993
v  0.40000001 0.70000005 0.099999934
v  0.40000004 0.80000001 0.19999993
v  0.5 0.80000001 -0.20000008
v  0.5 0.70000005 0.099999934
v  0.5 0.70000005 -0.20000008
v  0.5 0.80000001 0.099999934
v  -0.10000001 0.60000002 -0.10000001
v  -0.10000002 0.70000005 -0.20000003
v  -0.10000002 0.60000002 -0.20000003
v  -0.10000001 0.70000005 -0.10000002
v  -0.099999987 0.60000002 0.099999979
v  -0.099999994 0.70000005 -1.8626451e-08
v  -0.099999994 0.60000002 -1.1175871e-08
v  -0.099999987 0.70000005 0.099999979
v  -0.099999994 0.2 3.7252903e-09
v  -0.10000001 0.2 -0.099999994
v  -0.099999987 0.099999994 0.10000001
v  -0.099999994 0 1.4901161e-08
v  -0.099999979 0 0.20000002
v  -0.099999987 0.2 0.10000001
v  -0.099999979 0.099999994 0.19999999
v  -0.10000002 0.2 -0.2
v  -0.10000002 0.099999994 -0.2
v  -0.10000001 0 -0.099999987
v  -0.10000002 0 -0.29999998
v  -0.10000002 0.099999994 -0.29999998
v  -0.20000005 0.69999999 -0.5
v  -0.20000005 0.79999995 -0.60000002
v  -0.20000005 0.69999999 -0.60000002
v  -0.20000005 0.79999995 -0.50000006
v  -0.19999996 0.70000005 0.5
v  -0.19999996 0.80000007 0.39999998
v  -0.19999996 0.70000005 0.40000001
v  -0.19999996 0.80000007 0.5
v  -0.2 0.60000002 0
v  -0.2 0.70000005 -0.10000001
v  -0.2 0.60000002 -0.1
v  -0.2 0.70000005 -7.4505806e-09
v  -0.2 0.099999994 2.2351742e-08
v  -0.2 0.2 -0.099999987
v  -0.2 0.099999994 -0.099999979
v  -0.2 0.2 1.4901161e-08
v  -0.30000004 0.69999999 -0.39999998
v  -0.30000004 0.79999995 -0.5
v  -0.30000004 0.69999999 -0.5
v  -0.30000004 0.79999995 -0.40000001
v  -0.29999995 0.70000005 0.40000004
v  -0.29999998 0.80000007 0.29999998
v  -0.29999998 0.70000005 0.30000001
v  -0.29999995 0.80000007 0.40000001
v  -0.30000001 0 3.3527613e-08
v  -0.30000001 0.099999994 -0.099999972
v  -0.30000001 0 -0.099999964
v  -0.30000001 0.099999994 2.9802322e-08
v  -0.40000004 0.70000005 -0.29999998
v  -0.40000004 0.79999995 -0.40000001
v  -0.40000004 0.69999999 -0.39999998
v  -0.40000004 0.80000001 -0.29999998
v  -0.39999998 0.70000005 0.30000001
v  -0.39999998 0.80000001 0.19999999
v  -0.39999998 0.70000005 0.20000002
v  -0.39999998 0.80000007 0.29999998
v  -0.5 0.70000005 -0.19999999
v  -0.50000006 0.80000001 -0.29999998
v  -0.50000006 0.70000005 -0.29999998
v  -0.5 0.80000001 -0.19999999
v  -0.5 0.70000005 0.20000002
v  -0.5 0.80000001 0.10000002
v  -0.5 0.70000005 0.10000002
v  -0.5 0.80000001 0.19999999
v  -0.60000002 0.70000005 0.10000002
v  -0.60000002 0.80000001 -0.19999999
v  -0.60000002 0.70000005 -0.19999999
v  -0.60000002 0.80000001 0.10000002

# 45 UV coordinates
vt 0.60014141 0.55547696 0
vt 0.79971719 0.55547696 0
vt 0.60014141 0.44460157 0
vt 0.20014143 0.88881034 0
vt 0.39971718 0.88881034 0
vt 0.20014143 0.77793491 0
vt 0.39995 0.55572224 0
vt 0.20025 0.77761114 0
vt 0.4998 0.66666669 0
vt 0.40000001 0.61122221 0
vt 0.20029999 0.77763891 0
vt 0.59969997 0.66669446 0
vt 0.79982114 0.77760386 0
vt 0.79982114 0.66671634 0
vt 0.60035777 0.62975383 0
vt 0.79987198 0.18527055 0
vt 0.60025609 0.2222649 0
vt 0.79987198 0.37024233 0
vt 0.79982853 0.77762055 0
vt 0.79982853 0.66672385 0
vt 0.60034299 0.64454448 0
vt 0.20024157 0.77770346 0
vt 0.43318468 0.77770346 0
vt 0.39990708 0.64459312 0
vt 0.20030509 0.64453691 0
vt 0.39988905 0.64453691 0
vt 0.43980587 0.7775929 0
vt 0.60014427 0.20012504 0
vt 0.79971147 0.33328524 0
vt 0.60014427 0.35547861 0
vt 0.79965699 0.64454448 0
vt 0.60017151 0.66672385 0
vt 0.60017151 0.77762055 0
vt 0.79987198 0.370285 0
vt 0.60025609 0.33329067 0
vt 0.79987198 0.18531322 0
vt 0.60012805 0.18527055 0
vt 0.60012805 0.37024233 0
vt 0.79974395 0.2222649 0
vt 0.60012805 0.18531322 0
vt 0.79974395 0.33329067 0
vt 0.60012805 0.370285 0
vt 0.79964221 0.62975383 0
vt 0.6001789 0.66671634 0
vt 0.6001789 0.77760386 0

# 6 vertex normals
vn 0.050000001 -1.9106854e-16 -4.371139e-09
vn -0.050000001 1.9106854e-16 4.371139e-09
vn 0 -0.050000001 2.1855695e-09
vn 0 0.050000001 -2.1855695e-09
vn -4.371139e-09 -2.1855695e-09 -0.050000001
vn 4.371139e-09 2.1855695e-09 0.050000001

# Mesh 'Plane-tex' with 268 faces
g Plane-tex
usemtl lambert0
f  1/1/1 2/2/1 3/3/1
f  1/1/1 4/2/1 2/3/1
f  5/1/1 6/2/1 7/3/1
f  5/1/1 8/2/1 6/3/1
f  2/4/1 9/5/1 10/6/1
f  2/4/1 7/5/1 9/6/1
f  9/1/1 11/2/1 12/3/1
f  11/1/1 13/2/1 12/3/1
f  9/1/1 14/2/1 11/3/1
f  11/1/1 15/2/1 13/3/1
f  16/1/1 17/2/1 10/3/1
f  18/1/1 16/2/1 10/3/1
f  19/1/1 16/2/1 18/3/1
f  19/1/1 20/2/1 16/3/1
f  21/1/1 22/2/1 23/3/1
f  21/1/1 24/2/1 22/3/1
f  25/1/1 26/2/1 27/3/1
f  25/1/1 28/2/1 26/3/1
f  29/1/1 30/2/1 31/3/1
f  29/1/1 32/2/1 30/3/1
f  33/1/1 34/2/1 35/3/1
f  33/1/1 36/2/1 34/3/1
f  37/1/1 38/2/1 39/3/1
f  37/1/1 40/2/1 38/3/1
f  41/1/1 42/2/1 43/3/1
f  41/1/1 44/2/1 42/3/1
f  45/1/1 46/2/1 47/3/1
f  45/1/1 48/2/1 46/3/1
f  49/1/1 50/2/1 51/3/1
f  49/1/1 52/2/1 50/3/1
f  53/1/1 54/2/1 55/3/1
f  53/1/1 56/2/1 54/3/1
f  57/1/1 58/2/1 59/3/1
f  57/1/1 60/2/1 58/3/1
f  61/1/1 62/2/1 63/3/1
f  61/1/1 64/2/1 62/3/1
f  65/1/1 66/2/1 67/3/1
f  65/1/1 68/2/1 66/3/1
f  69/2/2 70/1/2 71/3/2
f  72/2/2 70/1/2 69/3/2
f  73/2/2 74/1/2 75/3/2
f  76/2/2 74/1/2 73/3/2
f  77/5/2 69/4/2 78/6/2
f  75/5/2 69/4/2 77/6/2
f  79/2/2 77/1/2 80/3/2
f  81/2/2 79/1/2 80/3/2
f  82/2/2 77/1/2 79/3/2
f  83/2/2 79/1/2 81/3/2
f  84/2/2 85/1/2 78/3/2
f  85/2/2 86/1/2 78/3/2
f  85/2/2 87/1/2 86/3/2
f  88/2/2 87/1/2 85/3/2
f  89/2/2 90/1/2 91/3/2
f  92/2/2 90/1/2 89/3/2
f  93/2/2 94/1/2 95/3/2
f  96/2/2 94/1/2 93/3/2
f  97/2/2 98/1/2 99/3/2
f  100/2/2 98/1/2 97/3/2
f  101/2/2 102/1/2 103/3/2
f  104/2/2 102/1/2 101/3/2
f  105/2/2 106/1/2 107/3/2
f  108/2/2 106/1/2 105/3/2
f  109/2/2 110/1/2 111/3/2
f  112/2/2 110/1/2 109/3/2
f  113/2/2 114/1/2 115/3/2
f  116/2/2 114/1/2 113/3/2
f  117/2/2 118/1/2 119/3/2
f  120/2/2 118/1/2 117/3/2
f  121/2/2 122/1/2 123/3/2
f  124/2/2 122/1/2 121/3/2
f  125/2/2 126/1/2 127/3/2
f  128/2/2 126/1/2 125/3/2
f  129/2/2 130/1/2 131/3/2
f  132/2/2 130/1/2 129/3/2
f  133/2/2 134/1/2 135/3/2
f  136/2/2 134/1/2 133/3/2
f  80/2/3 115/1/3 86/3/3
f  80/5/3 86/4/3 12/6/3
f  113/2/3 115/1/3 80/3/3
f  13/2/3 80/1/3 12/3/3
f  12/5/3 86/4/3 18/6/3
f  81/2/3 80/1/3 13/3/3
f  12/2/3 18/1/3 46/3/3
f  86/2/3 87/1/3 18/3/3
f  46/2/3 18/1/3 47/3/3
f  18/2/3 87/1/3 19/3/3
f  75/2/3 99/1/3 69/3/3
f  97/2/3 99/1/3 75/3/3
f  6/2/3 75/1/3 7/3/3
f  73/2/3 75/1/3 6/3/3
f  2/2/3 71/1/3 3/3/3
f  69/2/3 71/1/3 2/3/3
f  30/2/3 2/1/3 31/3/3
f  7/2/3 2/1/3 30/3/3
f  135/2/3 125/1/3 131/3/3
f  133/2/3 135/1/3 131/3/3
f  125/5/3 98/4/3 131/6/3
f  100/5/3 131/4/3 98/6/3
f  117/7/3 98/8/3 125/9/3
f  123/7/3 131/9/3 100/8/3
f  127/2/3 117/1/3 125/3/3
f  98/5/3 117/4/3 70/6/3
f  123/5/3 100/4/3 76/6/3
f  129/2/3 131/1/3 123/3/3
f  72/5/3 98/4/3 70/6/3
f  105/7/3 70/8/3 117/9/3
f  111/7/3 123/9/3 76/8/3
f  76/5/3 100/4/3 74/6/3
f  119/2/3 105/1/3 117/3/3
f  89/10/3 70/11/3 105/12/3
f  95/10/3 111/12/3 76/11/3
f  121/2/3 123/1/3 111/3/3
f  107/2/3 89/1/3 105/3/3
f  89/5/3 22/4/3 70/6/3
f  95/5/3 76/4/3 27/6/3
f  109/2/3 111/1/3 95/3/3
f  1/5/3 70/4/3 22/6/3
f  91/2/3 22/1/3 89/3/3
f  26/2/3 95/1/3 27/3/3
f  76/5/3 8/4/3 27/6/3
f  1/11/3 22/10/3 38/12/3
f  22/2/3 91/1/3 23/3/3
f  93/2/3 95/1/3 26/3/3
f  8/11/3 43/12/3 27/10/3
f  1/8/3 38/7/3 50/9/3
f  38/2/3 22/1/3 39/3/3
f  42/2/3 27/1/3 43/3/3
f  43/7/3 8/8/3 55/9/3
f  29/5/3 1/4/3 50/6/3
f  50/2/3 38/1/3 51/3/3
f  54/2/3 43/1/3 55/3/3
f  32/5/3 55/4/3 8/6/3
f  29/8/3 50/7/3 58/9/3
f  4/5/3 1/4/3 29/6/3
f  5/5/3 32/4/3 8/6/3
f  55/7/3 32/8/3 63/9/3
f  63/5/3 29/4/3 58/6/3
f  58/2/3 50/1/3 59/3/3
f  62/2/3 55/1/3 63/3/3
f  32/5/3 29/4/3 63/6/3
f  63/2/3 58/1/3 66/3/3
f  66/2/3 58/1/3 67/3/3
f  114/1/4 101/2/4 103/3/4
f  114/1/4 116/2/4 101/3/4
f  79/1/4 15/2/4 11/3/4
f  79/1/4 83/2/4 15/3/4
f  88/1/4 16/2/4 20/3/4
f  88/1/4 85/2/4 16/3/4
f  35/1/4 48/2/4 45/3/4
f  35/1/4 34/2/4 48/3/4
f  102/1/4 77/2/4 78/3/4
f  102/1/4 104/2/4 77/3/4
f  77/1/4 14/2/4 9/3/4
f  77/1/4 82/2/4 14/3/4
f  84/1/4 10/2/4 17/3/4
f  84/1/4 78/2/4 10/3/4
f  10/1/4 36/2/4 33/3/4
f  10/1/4 9/2/4 36/3/4
f  134/1/4 130/2/4 128/3/4
f  128/13/4 130/14/4 122/15/4
f  134/1/4 136/2/4 130/3/4
f  130/1/4 132/2/4 122/3/4
f  120/16/4 128/17/4 122/18/4
f  120/19/4 122/20/4 110/21/4
f  120/1/4 126/2/4 128/3/4
f  122/1/4 124/2/4 110/3/4
f  52/22/4 120/23/4 110/24/4
f  110/25/4 41/26/4 52/27/4
f  52/28/4 108/29/4 120/30/4
f  41/31/4 53/32/4 52/33/4
f  110/34/4 94/35/4 41/36/4
f  120/1/4 108/2/4 118/3/4
f  40/32/4 108/33/4 52/31/4
f  52/37/4 53/38/4 60/39/4
f  41/1/4 56/2/4 53/3/4
f  94/13/4 25/14/4 41/15/4
f  110/1/4 112/2/4 94/3/4
f  40/1/4 52/2/4 49/3/4
f  40/40/4 92/41/4 108/42/4
f  53/43/4 61/44/4 60/45/4
f  52/1/4 60/2/4 57/3/4
f  25/1/4 44/2/4 41/3/4
f  94/1/4 28/2/4 25/3/4
f  92/1/4 106/2/4 108/3/4
f  24/44/4 92/45/4 40/43/4
f  60/1/4 61/2/4 68/3/4
f  53/1/4 64/2/4 61/3/4
f  94/1/4 96/2/4 28/3/4
f  24/1/4 40/2/4 37/3/4
f  90/1/4 92/2/4 24/3/4
f  60/1/4 68/2/4 65/3/4
f  90/1/4 24/2/4 21/3/4
f  115/1/5 103/2/5 86/3/5
f  103/1/5 78/2/5 86/3/5
f  115/1/5 114/2/5 103/3/5
f  103/1/5 102/2/5 78/3/5
f  99/1/5 72/2/5 69/3/5
f  99/1/5 98/2/5 72/3/5
f  78/4/5 2/5/5 10/6/5
f  78/4/5 69/5/5 2/6/5
f  2/1/5 29/2/5 31/3/5
f  2/1/5 4/2/5 29/3/5
f  18/1/5 35/2/5 47/3/5
f  35/1/5 45/2/5 47/3/5
f  18/1/5 10/2/5 35/3/5
f  10/1/5 33/2/5 35/3/5
f  135/1/5 128/2/5 125/3/5
f  135/1/5 134/2/5 128/3/5
f  71/1/5 1/2/5 3/3/5
f  71/1/5 70/2/5 1/3/5
f  85/1/5 17/2/5 16/3/5
f  85/1/5 84/2/5 17/3/5
f  58/1/5 65/2/5 67/3/5
f  58/1/5 60/2/5 65/3/5
f  127/1/5 120/2/5 117/3/5
f  127/1/5 126/2/5 120/3/5
f  87/1/5 20/2/5 19/3/5
f  87/1/5 88/2/5 20/3/5
f  50/1/5 57/2/5 59/3/5
f  50/1/5 52/2/5 57/3/5
f  119/1/5 108/2/5 105/3/5
f  119/1/5 118/2/5 108/3/5
f  38/1/5 49/2/5 51/3/5
f  38/1/5 40/2/5 49/3/5
f  107/1/5 92/2/5 89/3/5
f  107/1/5 106/2/5 92/3/5
f  22/1/5 37/2/5 39/3/5
f  22/1/5 24/2/5 37/3/5
f  91/1/5 21/2/5 23/3/5
f  91/1/5 90/2/5 21/3/5
f  130/2/6 133/1/6 131/3/6
f  136/2/6 133/1/6 130/3/6
f  8/2/6 73/1/6 6/3/6
f  76/2/6 73/1/6 8/3/6
f  14/2/6 79/1/6 11/3/6
f  82/2/6 79/1/6 14/3/6
f  68/2/6 63/1/6 66/3/6
f  61/2/6 63/1/6 68/3/6
f  101/2/6 113/1/6 80/3/6
f  77/2/6 101/1/6 80/3/6
f  116/2/6 113/1/6 101/3/6
f  104/2/6 101/1/6 77/3/6
f  74/2/6 97/1/6 75/3/6
f  100/2/6 97/1/6 74/3/6
f  7/5/6 77/4/6 9/6/6
f  75/5/6 77/4/6 7/6/6
f  32/2/6 7/1/6 30/3/6
f  5/2/6 7/1/6 32/3/6
f  34/2/6 12/1/6 46/3/6
f  48/2/6 34/1/6 46/3/6
f  9/2/6 12/1/6 34/3/6
f  36/2/6 9/1/6 34/3/6
f  122/2/6 129/1/6 123/3/6
f  132/2/6 129/1/6 122/3/6
f  15/2/6 81/1/6 13/3/6
f  83/2/6 81/1/6 15/3/6
f  64/2/6 55/1/6 62/3/6
f  53/2/6 55/1/6 64/3/6
f  110/2/6 121/1/6 111/3/6
f  124/2/6 121/1/6 110/3/6
f  56/2/6 43/1/6 54/3/6
f  41/2/6 43/1/6 56/3/6
f  94/2/6 109/1/6 95/3/6
f  112/2/6 109/1/6 94/3/6
f  44/2/6 27/1/6 42/3/6
f  25/2/6 27/1/6 44/3/6
f  28/2/6 93/1/6 26/3/6
f  96/2/6 93/1/6 28/3/6

