# Blender 5.1.2
# www.blender.org
mtllib CoffeeCorn.mtl
o CoffeeCorn
v 0.100000 0.200000 -0.400000
v 0.100000 0.100000 -0.300000
v 0.100000 0.100000 -0.400000
v 0.100000 0.200000 -0.100000
v 0.100000 0.100000 -0.300000
v 0.100000 0.200000 -0.100000
v 0.100000 0.100000 -0.200000
v 0.100000 0.100000 -0.300000
v 0.100000 0.000000 -0.200000
v 0.100000 0.100000 -0.100000
v 0.100000 0.100000 -0.200000
v 0.100000 0.000000 -0.200000
v 0.100000 0.000000 -0.300000
v 0.000000 0.100000 -0.400000
v 0.000000 0.000000 -0.300000
v 0.000000 0.000000 -0.400000
v 0.000000 0.100000 -0.300000
v 0.000000 0.000000 -0.300000
v 0.000000 0.000000 -0.200000
v 0.000000 0.100000 -0.200000
v 0.000000 0.100000 -0.100000
v 0.000000 0.000000 -0.200000
v 0.000000 0.100000 -0.100000
v -0.000000 -0.000000 0.400000
v 0.000000 0.100000 -0.100000
v -0.000000 0.100000 0.400000
v -0.000000 -0.000000 0.400000
v -0.100000 0.200000 -0.300000
v -0.100000 0.100000 -0.200000
v -0.100000 0.100000 -0.300000
v -0.100000 0.200000 -0.200000
v -0.100000 0.100000 -0.200000
v -0.100000 0.000000 -0.300000
v -0.100000 0.100000 -0.400000
v -0.100000 0.000000 -0.400000
v -0.100000 0.100000 -0.300000
v -0.100000 0.000000 -0.300000
v -0.100000 0.000000 -0.200000
v -0.100000 0.100000 -0.100000
v -0.100000 0.100000 -0.100000
v -0.100000 0.000000 -0.200000
v -0.100000 -0.000000 0.400000
v -0.100000 0.100000 0.400000
v -0.100000 0.100000 -0.100000
v -0.100000 -0.000000 0.400000
v 0.000000 0.200000 -0.300000
v 0.000000 0.100000 -0.300000
v 0.000000 0.200000 -0.200000
v 0.000000 0.100000 -0.200000
v -0.200000 0.100000 -0.300000
v -0.200000 0.200000 -0.400000
v -0.200000 0.100000 -0.400000
v -0.200000 0.200000 -0.100000
v -0.200000 0.100000 -0.300000
v -0.200000 0.100000 -0.200000
v -0.200000 0.200000 -0.100000
v -0.200000 0.100000 -0.300000
v -0.200000 0.000000 -0.200000
v -0.200000 0.100000 -0.100000
v -0.200000 0.100000 -0.200000
v -0.200000 0.000000 -0.200000
v -0.200000 0.000000 -0.300000
v -0.100000 0.000000 -0.200000
v -0.200000 0.000000 -0.300000
v -0.100000 0.000000 -0.300000
v 0.000000 0.000000 -0.200000
v -0.100000 0.000000 -0.200000
v -0.000000 -0.000000 0.400000
v -0.100000 0.000000 -0.200000
v 0.000000 0.000000 -0.200000
v 0.000000 0.000000 -0.200000
v -0.100000 -0.000000 0.400000
v -0.100000 0.000000 -0.200000
v -0.000000 -0.000000 0.400000
v 0.000000 0.000000 -0.300000
v -0.100000 0.000000 -0.400000
v -0.200000 0.100000 -0.400000
v -0.100000 0.100000 -0.400000
v -0.100000 0.100000 -0.100000
v -0.200000 0.100000 -0.200000
v 0.000000 0.100000 -0.200000
v 0.000000 0.100000 -0.100000
v 0.100000 0.100000 -0.100000
v -0.100000 0.200000 -0.300000
v 0.100000 0.200000 -0.400000
v 0.000000 0.200000 -0.300000
v -0.100000 0.200000 -0.300000
v 0.100000 0.200000 -0.100000
v -0.100000 0.200000 -0.200000
v 0.000000 0.200000 -0.200000
v -0.100000 0.100000 -0.300000
v -0.100000 0.100000 -0.100000
v -0.000000 0.100000 0.400000
v 0.000000 0.100000 -0.100000
v -0.000000 0.100000 0.400000
v -0.100000 0.100000 -0.200000
v 0.000000 0.200000 -0.200000
v -0.200000 0.100000 -0.400000
v -0.200000 0.200000 -0.400000
v -0.100000 0.100000 -0.400000
v 0.100000 0.200000 -0.400000
v 0.000000 0.100000 -0.400000
v 0.000000 0.100000 -0.400000
v -0.100000 0.100000 -0.100000
v -0.200000 0.200000 -0.100000
v 0.000000 0.100000 -0.100000
v -0.200000 0.000000 -0.200000
v -0.000000 0.100000 0.400000
v -0.100000 -0.000000 0.400000
v -0.000000 -0.000000 0.400000
v -0.100000 0.100000 0.400000
v -0.000000 0.100000 0.400000
v 0.000000 0.200000 -0.300000
vn 1.0000 -0.0000 -0.0000
vn -1.0000 -0.0000 -0.0000
vn -0.0000 -1.0000 -0.0000
vn -0.0000 1.0000 -0.0000
vn -0.0000 -0.0000 -1.0000
vn -0.0000 -0.0000 1.0000
vt 0.166785 0.249912
vt 0.333098 0.249912
vt 0.166785 0.125177
vt 0.333218 0.343841
vt 0.166897 0.375052
vt 0.333218 0.531108
vt 0.333212 0.874829
vt 0.333212 0.718835
vt 0.166910 0.718835
vt 0.333209 0.531083
vt 0.166914 0.343834
vt 0.333209 0.343834
vt 0.166791 0.531166
vt 0.166791 0.343917
vt 0.333086 0.531166
vt 0.333090 0.874915
vt 0.166788 0.718921
vt 0.166788 0.874915
vt 0.833098 0.874912
vt 0.666785 0.874912
vt 0.666785 0.750177
s 0
usemtl lambert0.001
f 1/1/1 2/2/1 3/3/1
f 1/1/1 4/2/1 5/3/1
f 6/1/1 7/2/1 5/3/1
f 8/1/1 7/2/1 9/3/1
f 6/1/1 10/2/1 11/3/1
f 8/1/1 12/2/1 13/3/1
f 14/1/1 15/2/1 16/3/1
f 14/1/1 17/2/1 18/3/1
f 19/1/1 20/2/1 21/3/1
f 22/4/1 23/5/1 24/6/1
f 25/7/1 26/8/1 27/9/1
f 28/1/1 29/2/1 30/3/1
f 28/1/1 31/2/1 32/3/1
f 33/2/2 34/1/2 35/3/2
f 36/2/2 34/1/2 37/3/2
f 29/2/2 38/1/2 39/3/2
f 40/5/2 41/4/2 42/6/2
f 43/8/2 44/7/2 45/9/2
f 20/2/2 46/1/2 47/3/2
f 48/2/2 46/1/2 49/3/2
f 50/2/2 51/1/2 52/3/2
f 53/2/2 51/1/2 54/3/2
f 55/2/2 56/1/2 54/3/2
f 55/2/2 57/1/2 58/3/2
f 59/2/2 56/1/2 60/3/2
f 61/2/2 57/1/2 62/3/2
f 63/2/3 64/1/3 37/3/3
f 63/2/3 65/1/3 66/3/3
f 61/2/3 64/1/3 67/3/3
f 68/10/3 69/11/3 70/12/3
f 71/2/3 65/1/3 18/3/3
f 72/13/3 73/14/3 74/15/3
f 71/2/3 75/1/3 9/3/3
f 33/2/3 76/1/3 18/3/3
f 12/2/3 75/1/3 13/3/3
f 15/2/3 76/1/3 16/3/3
f 36/2/3 77/1/3 78/3/3
f 50/2/3 77/1/3 30/3/3
f 79/2/3 80/1/3 32/3/3
f 59/2/3 80/1/3 39/3/3
f 10/2/3 81/1/3 11/3/3
f 82/2/3 81/1/3 83/3/3
f 2/2/3 14/1/3 3/3/3
f 17/2/3 14/1/3 5/3/3
f 51/1/4 84/2/4 85/3/4
f 28/1/4 86/2/4 85/3/4
f 51/1/4 53/2/4 87/3/4
f 46/1/4 4/2/4 85/3/4
f 56/1/4 31/2/4 87/3/4
f 46/1/4 48/2/4 88/3/4
f 89/1/4 53/2/4 88/3/4
f 90/1/4 31/2/4 88/3/4
f 91/1/4 20/2/4 47/3/4
f 91/1/4 29/2/4 49/3/4
f 92/16/4 93/17/4 94/18/4
f 44/7/4 43/8/4 95/9/4
f 96/1/5 48/2/5 49/3/5
f 96/1/5 31/2/5 97/3/5
f 64/1/5 36/2/5 37/3/5
f 64/1/5 50/2/5 30/3/5
f 75/1/5 2/2/5 13/3/5
f 75/1/5 17/2/5 5/3/5
f 34/1/5 98/2/5 99/3/5
f 1/1/5 100/2/5 99/3/5
f 14/1/5 100/2/5 85/3/5
f 14/1/5 101/2/5 3/3/5
f 76/1/5 100/2/5 102/3/5
f 76/1/5 103/2/5 16/3/5
f 59/2/6 104/1/6 105/3/6
f 79/2/6 6/1/6 105/3/6
f 79/2/6 106/1/6 88/3/6
f 4/2/6 106/1/6 83/3/6
f 29/2/6 107/1/6 67/3/6
f 55/2/6 107/1/6 32/3/6
f 7/2/6 19/1/6 9/3/6
f 20/2/6 19/1/6 11/3/6
f 108/19/6 109/20/6 110/21/6
f 111/19/6 109/20/6 112/21/6
f 86/2/6 91/1/6 47/3/6
f 84/2/6 91/1/6 113/3/6
