# File produced by Open Asset Import Library (http://www.assimp.sf.net)
# (assimp v5.0.3029775719)

mtllib GrinderCoffee.mtl

# 112 vertex positions
v  0.099999964 2.3999999 -0.50000012
v  0.099999979 2.0999999 -0.4000001
v  0.099999964 2.0999999 -0.50000006
v  0.099999979 2.3999999 -0.4000001
v  0.10000001 2.3999999 0.09999989
v  0.10000002 2.0999999 0.19999991
v  0.10000001 2.0999999 0.099999905
v  0.10000002 2.4000001 0.19999988
v  0.099999994 2.0999999 -0.1000001
v  0.10000001 1.6999999 -7.4505806e-08
v  0.099999994 1.6999999 -0.10000008
v  0.10000001 2.0999999 -8.9406967e-08
v  0.099999979 2.0999999 -0.3000001
v  0.099999994 1.6999999 -0.20000008
v  0.099999979 1.6999999 -0.30000007
v  0.099999994 2.0999999 -0.20000011
v  -4.8428774e-08 2.3999999 -0.60000014
v  -3.7252903e-08 2.0999999 -0.50000006
v  -4.8428774e-08 2.0999999 -0.60000008
v  -3.7252903e-08 2.3999999 -0.50000012
v  2.2351742e-08 2.4000001 0.19999988
v  3.3527613e-08 2.0999999 0.29999995
v  2.2351742e-08 2.0999999 0.19999991
v  3.3527613e-08 2.4000001 0.29999989
v  7.4505806e-09 2.0999999 -7.4505806e-08
v  1.4901161e-08 1.6999999 0.099999949
v  7.4505806e-09 1.6999999 -5.9604645e-08
v  1.4901161e-08 2.0999999 0.09999992
v  -2.9802322e-08 2.0999999 -0.4000001
v  -2.2351742e-08 1.6999999 -0.30000007
v  -2.9802322e-08 1.6999999 -0.40000007
v  -2.2351742e-08 2.0999999 -0.30000007
v  0.19999997 2.3999999 -0.40000015
v  0.19999997 2.0999999 -0.3000001
v  0.19999997 2.0999999 -0.4000001
v  0.19999997 2.3999999 -0.30000013
v  0.19999999 2.3999999 -1.0430813e-07
v  0.20000002 2.0999999 0.099999905
v  0.19999999 2.0999999 -8.9406967e-08
v  0.20000002 2.3999999 0.09999989
v  0.19999999 2.0999999 -0.20000011
v  0.19999999 1.6999999 -0.10000008
v  0.19999999 1.6999999 -0.20000009
v  0.19999999 2.0999999 -0.10000011
v  0.29999998 2.3999999 -0.30000013
v  0.29999998 2.0999999 -0.20000011
v  0.29999998 2.0999999 -0.30000013
v  0.29999998 2.3999999 -0.20000012
v  0.29999998 2.3999999 -0.10000013
v  0.29999998 2.0999999 -1.0430813e-07
v  0.29999998 2.0999999 -0.10000011
v  0.29999998 2.3999999 -1.1920929e-07
v  0.40000001 2.3999999 -0.20000014
v  0.40000001 2.0999999 -0.10000013
v  0.40000001 2.0999999 -0.20000012
v  0.40000001 2.3999999 -0.10000014
v  -0.10000004 2.0999999 -0.50000006
v  -0.10000005 2.3999999 -0.60000014
v  -0.10000005 2.0999999 -0.60000008
v  -0.10000004 2.3999999 -0.50000012
v  -0.099999964 2.0999999 0.29999995
v  -0.099999979 2.4000001 0.19999988
v  -0.099999979 2.0999999 0.19999991
v  -0.099999964 2.4000001 0.29999989
v  -0.099999987 1.6999999 0.099999949
v  -0.099999994 2.0999999 -7.4505806e-08
v  -0.099999994 1.6999999 -5.9604645e-08
v  -0.099999987 2.0999999 0.09999992
v  -0.10000002 1.6999999 -0.30000007
v  -0.10000003 2.0999999 -0.4000001
v  -0.10000003 1.6999999 -0.40000007
v  -0.10000002 2.0999999 -0.30000007
v  -0.20000003 2.0999999 -0.40000007
v  -0.20000005 2.3999999 -0.50000012
v  -0.20000005 2.0999999 -0.50000006
v  -0.20000003 2.3999999 -0.4000001
v  -0.19999999 2.0999999 0.19999991
v  -0.2 2.3999999 0.099999905
v  -0.2 2.0999999 0.09999992
v  -0.19999999 2.4000001 0.19999988
v  -0.2 1.6999999 -4.4703484e-08
v  -0.20000002 2.0999999 -0.10000007
v  -0.20000002 1.6999999 -0.10000005
v  -0.2 2.0999999 -5.9604645e-08
v  -0.20000002 1.6999999 -0.20000005
v  -0.20000003 2.0999999 -0.30000007
v  -0.20000003 1.6999999 -0.30000007
v  -0.20000002 2.0999999 -0.20000008
v  -0.30000001 2.0999999 -0.30000007
v  -0.30000004 2.3999999 -0.4000001
v  -0.30000004 2.0999999 -0.40000007
v  -0.30000001 2.3999999 -0.30000007
v  -0.29999998 2.0999999 0.099999949
v  -0.29999998 2.3999999 -7.4505806e-08
v  -0.29999998 2.0999999 -5.9604645e-08
v  -0.29999998 2.3999999 0.09999992
v  -0.30000001 1.6999999 -0.10000004
v  -0.30000001 2.0999999 -0.20000006
v  -0.30000001 1.6999999 -0.20000005
v  -0.30000001 2.0999999 -0.10000006
v  -0.40000001 2.0999999 -0.20000005
v  -0.40000001 2.3999999 -0.30000007
v  -0.40000001 2.0999999 -0.30000007
v  -0.40000001 2.3999999 -0.20000006
v  -0.40000001 2.0999999 -4.4703484e-08
v  -0.40000001 2.3999999 -0.10000007
v  -0.40000001 2.0999999 -0.10000005
v  -0.40000001 2.3999999 -5.9604645e-08
v  -0.5 2.0999999 -0.10000004
v  -0.5 2.3999999 -0.20000005
v  -0.5 2.0999999 -0.20000005
v  -0.5 2.3999999 -0.10000005

# 3 UV coordinates
vt 0.33356905 0.66643095 0
vt 0.66619527 0.66643095 0
vt 0.33356905 0.33380473 0

# 6 vertex normals
vn 0.050000001 -1.9106854e-16 -4.371139e-09
vn -0.050000001 1.9106854e-16 4.371139e-09
vn 0 -0.050000001 2.1855695e-09
vn 0 0.050000001 -2.1855695e-09
vn -4.371139e-09 -2.1855695e-09 -0.050000001
vn 4.371139e-09 2.1855695e-09 0.050000001

# Mesh 'Plane-tex' with 220 faces
g Plane-tex
usemtl lambert0
f  1/1/1 2/2/1 3/3/1
f  1/1/1 4/2/1 2/3/1
f  5/1/1 6/2/1 7/3/1
f  5/1/1 8/2/1 6/3/1
f  9/1/1 10/2/1 11/3/1
f  9/1/1 12/2/1 10/3/1
f  13/1/1 14/2/1 15/3/1
f  13/1/1 16/2/1 14/3/1
f  17/1/1 18/2/1 19/3/1
f  17/1/1 20/2/1 18/3/1
f  21/1/1 22/2/1 23/3/1
f  21/1/1 24/2/1 22/3/1
f  25/1/1 26/2/1 27/3/1
f  25/1/1 28/2/1 26/3/1
f  29/1/1 30/2/1 31/3/1
f  29/1/1 32/2/1 30/3/1
f  33/1/1 34/2/1 35/3/1
f  33/1/1 36/2/1 34/3/1
f  37/1/1 38/2/1 39/3/1
f  37/1/1 40/2/1 38/3/1
f  41/1/1 42/2/1 43/3/1
f  41/1/1 44/2/1 42/3/1
f  45/1/1 46/2/1 47/3/1
f  45/1/1 48/2/1 46/3/1
f  49/1/1 50/2/1 51/3/1
f  49/1/1 52/2/1 50/3/1
f  53/1/1 54/2/1 55/3/1
f  53/1/1 56/2/1 54/3/1
f  57/2/2 58/1/2 59/3/2
f  60/2/2 58/1/2 57/3/2
f  61/2/2 62/1/2 63/3/2
f  64/2/2 62/1/2 61/3/2
f  65/2/2 66/1/2 67/3/2
f  68/2/2 66/1/2 65/3/2
f  69/2/2 70/1/2 71/3/2
f  72/2/2 70/1/2 69/3/2
f  73/2/2 74/1/2 75/3/2
f  76/2/2 74/1/2 73/3/2
f  77/2/2 78/1/2 79/3/2
f  80/2/2 78/1/2 77/3/2
f  81/2/2 82/1/2 83/3/2
f  84/2/2 82/1/2 81/3/2
f  85/2/2 86/1/2 87/3/2
f  88/2/2 86/1/2 85/3/2
f  89/2/2 90/1/2 91/3/2
f  92/2/2 90/1/2 89/3/2
f  93/2/2 94/1/2 95/3/2
f  96/2/2 94/1/2 93/3/2
f  97/2/2 98/1/2 99/3/2
f  100/2/2 98/1/2 97/3/2
f  101/2/2 102/1/2 103/3/2
f  104/2/2 102/1/2 101/3/2
f  105/2/2 106/1/2 107/3/2
f  108/2/2 106/1/2 105/3/2
f  109/2/2 110/1/2 111/3/2
f  112/2/2 110/1/2 109/3/2
f  83/2/3 99/1/3 85/3/3
f  83/2/3 85/1/3 67/3/3
f  97/2/3 99/1/3 83/3/3
f  81/2/3 83/1/3 67/3/3
f  85/2/3 14/1/3 67/3/3
f  27/2/3 67/1/3 14/3/3
f  69/2/3 14/1/3 85/3/3
f  11/2/3 27/1/3 14/3/3
f  26/2/3 67/1/3 27/3/3
f  69/2/3 85/1/3 87/3/3
f  69/2/3 30/1/3 14/3/3
f  11/2/3 14/1/3 42/3/3
f  10/2/3 27/1/3 11/3/3
f  65/2/3 67/1/3 26/3/3
f  14/2/3 30/1/3 15/3/3
f  69/2/3 71/1/3 30/3/3
f  42/2/3 14/1/3 43/3/3
f  30/2/3 71/1/3 31/3/3
f  107/2/3 111/1/3 101/3/3
f  107/2/3 101/1/3 100/3/3
f  109/2/3 111/1/3 107/3/3
f  95/2/3 107/1/3 100/3/3
f  100/2/3 101/1/3 98/3/3
f  95/2/3 100/1/3 84/3/3
f  105/2/3 107/1/3 95/3/3
f  101/2/3 103/1/3 98/3/3
f  79/2/3 95/1/3 84/3/3
f  84/2/3 100/1/3 82/3/3
f  98/2/3 103/1/3 89/3/3
f  79/2/3 84/1/3 68/3/3
f  93/2/3 95/1/3 79/3/3
f  98/2/3 89/1/3 88/3/3
f  63/2/3 79/1/3 68/3/3
f  68/2/3 84/1/3 66/3/3
f  88/2/3 89/1/3 86/3/3
f  63/2/3 68/1/3 23/3/3
f  77/2/3 79/1/3 63/3/3
f  89/2/3 91/1/3 86/3/3
f  22/2/3 63/1/3 23/3/3
f  23/2/3 68/1/3 28/3/3
f  86/2/3 91/1/3 73/3/3
f  61/2/3 63/1/3 22/3/3
f  23/2/3 28/1/3 6/3/3
f  86/2/3 73/1/3 72/3/3
f  6/2/3 28/1/3 7/3/3
f  72/2/3 73/1/3 70/3/3
f  28/2/3 25/1/3 7/3/3
f  73/2/3 75/1/3 70/3/3
f  7/2/3 25/1/3 12/3/3
f  70/2/3 75/1/3 57/3/3
f  7/2/3 12/1/3 38/3/3
f  70/2/3 57/1/3 29/3/3
f  38/2/3 12/1/3 39/3/3
f  29/2/3 57/1/3 18/3/3
f  12/2/3 9/1/3 39/3/3
f  29/2/3 18/1/3 2/3/3
f  57/2/3 59/1/3 18/3/3
f  39/2/3 9/1/3 44/3/3
f  13/2/3 29/1/3 2/3/3
f  2/2/3 18/1/3 3/3/3
f  18/2/3 59/1/3 19/3/3
f  39/2/3 44/1/3 50/3/3
f  13/2/3 2/1/3 34/3/3
f  32/2/3 29/1/3 13/3/3
f  50/2/3 44/1/3 51/3/3
f  41/2/3 13/1/3 34/3/3
f  34/2/3 2/1/3 35/3/3
f  44/2/3 41/1/3 51/3/3
f  41/2/3 34/1/3 46/3/3
f  16/2/3 13/1/3 41/3/3
f  51/2/3 41/1/3 46/3/3
f  46/2/3 34/1/3 47/3/3
f  51/2/3 46/1/3 54/3/3
f  54/2/3 46/1/3 55/3/3
f  110/1/4 106/2/4 104/3/4
f  104/1/4 106/2/4 94/3/4
f  110/1/4 112/2/4 106/3/4
f  106/1/4 108/2/4 94/3/4
f  92/1/4 104/2/4 94/3/4
f  92/1/4 94/2/4 78/3/4
f  92/1/4 102/2/4 104/3/4
f  94/1/4 96/2/4 78/3/4
f  36/1/4 92/2/4 78/3/4
f  78/1/4 5/2/4 36/3/4
f  36/1/4 76/2/4 92/3/4
f  5/1/4 37/2/4 36/3/4
f  78/1/4 62/2/4 5/3/4
f  92/1/4 76/2/4 90/3/4
f  4/1/4 76/2/4 36/3/4
f  36/1/4 37/2/4 48/3/4
f  5/1/4 40/2/4 37/3/4
f  62/1/4 21/2/4 5/3/4
f  78/1/4 80/2/4 62/3/4
f  4/1/4 36/2/4 33/3/4
f  4/1/4 60/2/4 76/3/4
f  37/1/4 49/2/4 48/3/4
f  36/1/4 48/2/4 45/3/4
f  21/1/4 8/2/4 5/3/4
f  62/1/4 24/2/4 21/3/4
f  60/1/4 74/2/4 76/3/4
f  20/1/4 60/2/4 4/3/4
f  48/1/4 49/2/4 56/3/4
f  37/1/4 52/2/4 49/3/4
f  62/1/4 64/2/4 24/3/4
f  20/1/4 4/2/4 1/3/4
f  58/1/4 60/2/4 20/3/4
f  48/1/4 56/2/4 53/3/4
f  58/1/4 20/2/4 17/3/4
f  111/1/5 104/2/5 101/3/5
f  111/1/5 110/2/5 104/3/5
f  99/1/5 88/2/5 85/3/5
f  99/1/5 98/2/5 88/3/5
f  14/1/5 41/2/5 43/3/5
f  14/1/5 16/2/5 41/3/5
f  46/1/5 53/2/5 55/3/5
f  46/1/5 48/2/5 53/3/5
f  103/1/5 92/2/5 89/3/5
f  103/1/5 102/2/5 92/3/5
f  87/1/5 72/2/5 69/3/5
f  87/1/5 86/2/5 72/3/5
f  30/1/5 13/2/5 15/3/5
f  30/1/5 32/2/5 13/3/5
f  34/1/5 45/2/5 47/3/5
f  34/1/5 36/2/5 45/3/5
f  91/1/5 76/2/5 73/3/5
f  91/1/5 90/2/5 76/3/5
f  71/1/5 29/2/5 31/3/5
f  71/1/5 70/2/5 29/3/5
f  2/1/5 33/2/5 35/3/5
f  2/1/5 4/2/5 33/3/5
f  75/1/5 60/2/5 57/3/5
f  75/1/5 74/2/5 60/3/5
f  18/1/5 1/2/5 3/3/5
f  18/1/5 20/2/5 1/3/5
f  59/1/5 17/2/5 19/3/5
f  59/1/5 58/2/5 17/3/5
f  78/2/6 93/1/6 79/3/6
f  96/2/6 93/1/6 78/3/6
f  28/2/6 65/1/6 26/3/6
f  68/2/6 65/1/6 28/3/6
f  40/2/6 7/1/6 38/3/6
f  5/2/6 7/1/6 40/3/6
f  94/2/6 105/1/6 95/3/6
f  108/2/6 105/1/6 94/3/6
f  66/2/6 81/1/6 67/3/6
f  84/2/6 81/1/6 66/3/6
f  12/2/6 27/1/6 10/3/6
f  25/2/6 27/1/6 12/3/6
f  52/2/6 39/1/6 50/3/6
f  37/2/6 39/1/6 52/3/6
f  62/2/6 77/1/6 63/3/6
f  80/2/6 77/1/6 62/3/6
f  8/2/6 23/1/6 6/3/6
f  21/2/6 23/1/6 8/3/6
f  106/2/6 109/1/6 107/3/6
f  112/2/6 109/1/6 106/3/6
f  82/2/6 97/1/6 83/3/6
f  100/2/6 97/1/6 82/3/6
f  44/2/6 11/1/6 42/3/6
f  9/2/6 11/1/6 44/3/6
f  56/2/6 51/1/6 54/3/6
f  49/2/6 51/1/6 56/3/6
f  24/2/6 61/1/6 22/3/6
f  64/2/6 61/1/6 24/3/6

