# Blender 5.1.1
# www.blender.org
mtllib BlackBody.mtl
o BlackShuriaBody
v 0.200000 0.700000 -0.200000
v 0.200000 0.200000 0.100000
v 0.200000 0.200000 -0.200000
v 0.200000 0.700000 -0.200000
v 0.200000 0.700000 0.100000
v 0.200000 0.200000 0.100000
v -0.200000 0.200000 0.100000
v -0.200000 0.700000 -0.200000
v -0.200000 0.200000 -0.200000
v -0.200000 0.700000 0.100000
v -0.200000 0.700000 -0.200000
v -0.200000 0.200000 0.100000
v 0.200000 0.200000 0.100000
v -0.200000 0.200000 -0.200000
v 0.200000 0.200000 -0.200000
v -0.200000 0.200000 0.100000
v -0.200000 0.200000 -0.200000
v 0.200000 0.200000 0.100000
v -0.200000 0.700000 -0.200000
v 0.200000 0.700000 0.100000
v 0.200000 0.700000 -0.200000
v -0.200000 0.700000 -0.200000
v -0.200000 0.700000 0.100000
v 0.200000 0.700000 0.100000
v -0.200000 0.200000 -0.200000
v 0.200000 0.700000 -0.200000
v 0.200000 0.200000 -0.200000
v -0.200000 0.200000 -0.200000
v -0.200000 0.700000 -0.200000
v 0.200000 0.700000 -0.200000
v 0.200000 0.700000 0.100000
v -0.200000 0.200000 0.100000
v 0.200000 0.200000 0.100000
v -0.200000 0.700000 0.100000
v -0.200000 0.200000 0.100000
v 0.200000 0.700000 0.100000
vn 1.0000 -0.0000 -0.0000
vn -1.0000 -0.0000 -0.0000
vn -0.0000 -1.0000 -0.0000
vn -0.0000 1.0000 -0.0000
vn -0.0000 -0.0000 -1.0000
vn -0.0000 -0.0000 1.0000
vt 0.100177 0.312519
vt 0.599911 0.374961
vt 0.599911 0.312519
vt 0.800141 0.222193
vt 0.899929 0.222193
vt 0.899929 0.152837
vt 0.600093 0.750037
vt 0.749954 0.958260
vt 0.749954 0.750037
vt 0.100077 0.291640
vt 0.100077 0.166720
vt 0.599847 0.291640
vt 0.500134 0.125031
vt 0.799933 0.291605
vt 0.799933 0.125031
vt 0.650049 0.749964
vt 0.799902 0.749964
vt 0.650049 0.583406
vt 0.799913 0.041707
vt 0.500175 0.097202
vt 0.799913 0.097202
vt 0.650055 0.291736
vt 0.650055 0.416632
vt 0.849889 0.416632
vt 0.599927 0.541724
vt 0.100146 0.708305
vt 0.599927 0.708305
vt 0.599826 0.729187
vt 0.100087 0.729187
vt 0.100087 0.812459
vt 0.100146 0.541638
vt 0.599927 0.375057
vt 0.599927 0.541638
vt 0.100087 0.937480
vt 0.599826 0.937480
vt 0.100087 0.854207
s 0
usemtl lambert0
f 1/1/1 2/2/1 3/3/1
f 4/4/1 5/5/1 6/6/1
f 7/7/2 8/8/2 9/9/2
f 10/10/2 11/11/2 12/12/2
f 13/13/3 14/14/3 15/15/3
f 16/16/3 17/17/3 18/18/3
f 19/19/4 20/20/4 21/21/4
f 22/22/4 23/23/4 24/24/4
f 25/25/5 26/26/5 27/27/5
f 28/28/5 29/29/5 30/30/5
f 31/31/6 32/32/6 33/33/6
f 34/34/6 35/35/6 36/36/6
